<?xml version="1.0" encoding="utf-8" standalone="no"?>
<!DOCTYPE svg PUBLIC "-//W3C//DTD SVG 1.1//EN"
  "http://www.w3.org/Graphics/SVG/1.1/DTD/svg11.dtd">
<svg xmlns:xlink="http://www.w3.org/1999/xlink" width="252pt" height="216pt" viewBox="0 0 252 216" xmlns="http://www.w3.org/2000/svg" version="1.1">
 <metadata>
  <rdf:RDF xmlns:dc="http://purl.org/dc/elements/1.1/" xmlns:cc="http://creativecommons.org/ns#" xmlns:rdf="http://www.w3.org/1999/02/22-rdf-syntax-ns#">
   <cc:Work>
    <dc:type rdf:resource="http://purl.org/dc/dcmitype/StillImage"/>
    <dc:date>2025-07-19T11:03:16.513914</dc:date>
    <dc:format>image/svg+xml</dc:format>
    <dc:creator>
     <cc:Agent>
      <dc:title>Matplotlib v3.9.2, https://matplotlib.org/</dc:title>
     </cc:Agent>
    </dc:creator>
   </cc:Work>
  </rdf:RDF>
 </metadata>
 <defs>
  <style type="text/css">*{stroke-linejoin: round; stroke-linecap: butt}</style>
 </defs>
 <g id="figure_1">
  <g id="patch_1">
   <path d="M 0 216 
L 252 216 
L 252 0 
L 0 0 
z
" style="fill: #ffffff"/>
  </g>
  <g id="axes_1">
   <g id="patch_2">
    <path d="M 70.994 161.08 
L 232.839 161.08 
L 232.839 10.8 
L 70.994 10.8 
z
" style="fill: #ffffff"/>
   </g>
   <g id="line2d_1">
    <path d="M 70.994 17.630877 
L 232.839 17.630877 
" clip-path="url(#pc3e5394119)" style="fill: none; stroke-dasharray: 3.811,1.648; stroke-dashoffset: 0; stroke: #808080; stroke-width: 1.03"/>
   </g>
   <g id="line2d_2">
    <path d="M 78.350591 154.203384 
L 79.836771 152.983714 
L 81.322951 149.188764 
L 82.809131 143.503566 
L 84.295311 136.995885 
L 85.781491 130.381959 
L 87.267671 123.963922 
L 88.753851 118.023116 
L 90.240031 112.404846 
L 91.726211 107.330553 
L 93.212391 102.694253 
L 94.698571 98.508817 
L 96.184751 94.713955 
L 97.670931 91.093396 
L 99.157111 87.78863 
L 100.643291 84.870439 
L 102.129471 82.201253 
L 103.615651 79.489449 
L 105.101831 77.265251 
L 106.588011 75.030677 
L 108.074191 72.910895 
L 109.560371 70.92713 
L 111.046551 69.202936 
L 112.53273 67.512759 
L 114.01891 66.072745 
L 115.50509 64.464708 
L 116.99127 63.1206 
L 118.47745 61.793507 
L 119.96363 60.560036 
L 121.44981 59.310108 
L 122.93599 58.192754 
L 124.42217 57.384431 
L 125.90835 56.210328 
L 127.39453 55.260806 
L 128.88071 54.422434 
L 130.36689 53.474946 
L 131.85307 52.724329 
L 133.33925 51.864475 
L 134.82543 51.2458 
L 136.31161 50.331736 
L 137.79779 49.703839 
L 139.28397 49.072147 
L 140.77015 48.436638 
L 142.25633 47.92354 
L 143.74251 47.154078 
L 145.22869 46.723113 
L 146.71487 46.116846 
L 148.20105 45.638097 
L 149.68723 45.163314 
L 151.17341 44.674229 
L 152.65959 44.05641 
L 154.14577 43.790566 
L 155.63195 43.167764 
L 157.11813 42.810302 
L 158.60431 42.406783 
L 160.09049 42.046872 
L 161.57667 41.595355 
L 163.06285 41.187436 
L 164.54903 40.95467 
L 166.03521 40.504286 
L 167.52139 40.092416 
L 169.00757 39.862955 
L 170.49375 39.586994 
L 171.97993 39.264197 
L 173.46611 38.894173 
L 174.95229 38.662304 
L 176.43847 38.243765 
L 177.92465 38.168787 
L 179.41083 37.870457 
L 180.89701 37.495949 
L 182.38319 37.167265 
L 183.86937 37.026118 
L 185.35555 36.8848 
L 186.84173 36.50712 
L 188.32791 36.317824 
L 189.81409 36.080776 
L 191.30027 35.79569 
L 192.786449 35.6902 
L 194.272629 35.366771 
L 195.758809 35.271245 
L 197.244989 35.079962 
L 198.731169 34.840426 
L 200.217349 34.605173 
L 201.703529 34.408048 
L 203.189709 34.311751 
L 204.675889 34.167161 
L 206.162069 33.877458 
L 207.648249 33.635505 
L 209.134429 33.538588 
L 210.620609 33.441593 
L 212.106789 33.198764 
L 213.592969 33.150139 
L 215.079149 33.004149 
L 216.565329 32.71164 
L 218.051509 32.613981 
L 219.537689 32.467344 
L 221.023869 32.271554 
L 222.510049 32.124504 
L 223.996229 31.977278 
L 225.482409 31.977278 
" clip-path="url(#pc3e5394119)" style="fill: none; stroke-dasharray: 3.811,1.648; stroke-dashoffset: 0; stroke: #000000; stroke-width: 1.03"/>
   </g>
   <g id="matplotlib.axis_1">
    <g id="xtick_1">
     <g id="line2d_3">
      <defs>
       <path id="m801d5d855d" d="M 0 0 
L 0 3.5 
" style="stroke: #000000; stroke-width: 0.8"/>
      </defs>
      <g>
       <use xlink:href="#m801d5d855d" x="76.864411" y="161.08" style="stroke: #000000; stroke-width: 0.8"/>
      </g>
     </g>
     <g id="text_1">
      <!-- 0 -->
      <g transform="translate(71.942981 180.749328) scale(0.177 -0.177)">
       <defs>
        <path id="ArialMT-30" d="M 266 2259 
Q 266 3072 433 3567 
Q 600 4063 929 4331 
Q 1259 4600 1759 4600 
Q 2128 4600 2406 4451 
Q 2684 4303 2865 4023 
Q 3047 3744 3150 3342 
Q 3253 2941 3253 2259 
Q 3253 1453 3087 958 
Q 2922 463 2592 192 
Q 2263 -78 1759 -78 
Q 1097 -78 719 397 
Q 266 969 266 2259 
z
M 844 2259 
Q 844 1131 1108 757 
Q 1372 384 1759 384 
Q 2147 384 2411 759 
Q 2675 1134 2675 2259 
Q 2675 3391 2411 3762 
Q 2147 4134 1753 4134 
Q 1366 4134 1134 3806 
Q 844 3388 844 2259 
z
" transform="scale(0.015625)"/>
       </defs>
       <use xlink:href="#ArialMT-30"/>
      </g>
     </g>
    </g>
    <g id="xtick_2">
     <g id="line2d_4">
      <g>
       <use xlink:href="#m801d5d855d" x="114.01891" y="161.08" style="stroke: #000000; stroke-width: 0.8"/>
      </g>
     </g>
     <g id="text_2">
      <!-- 25 -->
      <g transform="translate(104.176051 180.749328) scale(0.177 -0.177)">
       <defs>
        <path id="ArialMT-32" d="M 3222 541 
L 3222 0 
L 194 0 
Q 188 203 259 391 
Q 375 700 629 1000 
Q 884 1300 1366 1694 
Q 2113 2306 2375 2664 
Q 2638 3022 2638 3341 
Q 2638 3675 2398 3904 
Q 2159 4134 1775 4134 
Q 1369 4134 1125 3890 
Q 881 3647 878 3216 
L 300 3275 
Q 359 3922 746 4261 
Q 1134 4600 1788 4600 
Q 2447 4600 2831 4234 
Q 3216 3869 3216 3328 
Q 3216 3053 3103 2787 
Q 2991 2522 2730 2228 
Q 2469 1934 1863 1422 
Q 1356 997 1212 845 
Q 1069 694 975 541 
L 3222 541 
z
" transform="scale(0.015625)"/>
        <path id="ArialMT-35" d="M 266 1200 
L 856 1250 
Q 922 819 1161 601 
Q 1400 384 1738 384 
Q 2144 384 2425 690 
Q 2706 997 2706 1503 
Q 2706 1984 2436 2262 
Q 2166 2541 1728 2541 
Q 1456 2541 1237 2417 
Q 1019 2294 894 2097 
L 366 2166 
L 809 4519 
L 3088 4519 
L 3088 3981 
L 1259 3981 
L 1013 2750 
Q 1425 3038 1878 3038 
Q 2478 3038 2890 2622 
Q 3303 2206 3303 1553 
Q 3303 931 2941 478 
Q 2500 -78 1738 -78 
Q 1113 -78 717 272 
Q 322 622 266 1200 
z
" transform="scale(0.015625)"/>
       </defs>
       <use xlink:href="#ArialMT-32"/>
       <use xlink:href="#ArialMT-35" x="55.615234"/>
      </g>
     </g>
    </g>
    <g id="xtick_3">
     <g id="line2d_5">
      <g>
       <use xlink:href="#m801d5d855d" x="151.17341" y="161.08" style="stroke: #000000; stroke-width: 0.8"/>
      </g>
     </g>
     <g id="text_3">
      <!-- 50 -->
      <g transform="translate(141.330551 180.749328) scale(0.177 -0.177)">
       <use xlink:href="#ArialMT-35"/>
       <use xlink:href="#ArialMT-30" x="55.615234"/>
      </g>
     </g>
    </g>
    <g id="xtick_4">
     <g id="line2d_6">
      <g>
       <use xlink:href="#m801d5d855d" x="188.32791" y="161.08" style="stroke: #000000; stroke-width: 0.8"/>
      </g>
     </g>
     <g id="text_4">
      <!-- 75 -->
      <g transform="translate(178.48505 180.749328) scale(0.177 -0.177)">
       <defs>
        <path id="ArialMT-37" d="M 303 3981 
L 303 4522 
L 3269 4522 
L 3269 4084 
Q 2831 3619 2401 2847 
Q 1972 2075 1738 1259 
Q 1569 684 1522 0 
L 944 0 
Q 953 541 1156 1306 
Q 1359 2072 1739 2783 
Q 2119 3494 2547 3981 
L 303 3981 
z
" transform="scale(0.015625)"/>
       </defs>
       <use xlink:href="#ArialMT-37"/>
       <use xlink:href="#ArialMT-35" x="55.615234"/>
      </g>
     </g>
    </g>
    <g id="xtick_5">
     <g id="line2d_7">
      <g>
       <use xlink:href="#m801d5d855d" x="225.482409" y="161.08" style="stroke: #000000; stroke-width: 0.8"/>
      </g>
     </g>
     <g id="text_5">
      <!-- 100 -->
      <g transform="translate(210.71812 180.749328) scale(0.177 -0.177)">
       <defs>
        <path id="ArialMT-31" d="M 2384 0 
L 1822 0 
L 1822 3584 
Q 1619 3391 1289 3197 
Q 959 3003 697 2906 
L 697 3450 
Q 1169 3672 1522 3987 
Q 1875 4303 2022 4600 
L 2384 4600 
L 2384 0 
z
" transform="scale(0.015625)"/>
       </defs>
       <use xlink:href="#ArialMT-31"/>
       <use xlink:href="#ArialMT-30" x="55.615234"/>
       <use xlink:href="#ArialMT-30" x="111.230469"/>
      </g>
     </g>
    </g>
    <g id="text_6">
     <!-- $n$ -->
     <g transform="translate(146.1565 201.151266) scale(0.18 -0.18)">
      <defs>
       <path id="DejaVuSans-Oblique-6e" d="M 3566 2113 
L 3156 0 
L 2578 0 
L 2988 2091 
Q 3016 2238 3031 2350 
Q 3047 2463 3047 2528 
Q 3047 2791 2881 2937 
Q 2716 3084 2419 3084 
Q 1956 3084 1622 2776 
Q 1288 2469 1184 1941 
L 800 0 
L 225 0 
L 903 3500 
L 1478 3500 
L 1363 2950 
Q 1603 3253 1940 3418 
Q 2278 3584 2650 3584 
Q 3113 3584 3367 3334 
Q 3622 3084 3622 2631 
Q 3622 2519 3608 2391 
Q 3594 2263 3566 2113 
z
" transform="scale(0.015625)"/>
      </defs>
      <use xlink:href="#DejaVuSans-Oblique-6e"/>
     </g>
    </g>
   </g>
   <g id="matplotlib.axis_2">
    <g id="ytick_1">
     <g id="line2d_8">
      <defs>
       <path id="m2042edfecb" d="M 0 0 
L -3.5 0 
" style="stroke: #000000; stroke-width: 0.8"/>
      </defs>
      <g>
       <use xlink:href="#m2042edfecb" x="70.994" y="154.249562" style="stroke: #000000; stroke-width: 0.8"/>
      </g>
     </g>
     <g id="text_7">
      <!-- 1.0 -->
      <g transform="translate(39.391 160.584227) scale(0.177 -0.177)">
       <defs>
        <path id="ArialMT-2e" d="M 581 0 
L 581 641 
L 1222 641 
L 1222 0 
L 581 0 
z
" transform="scale(0.015625)"/>
       </defs>
       <use xlink:href="#ArialMT-31"/>
       <use xlink:href="#ArialMT-2e" x="55.615234"/>
       <use xlink:href="#ArialMT-30" x="83.398438"/>
      </g>
     </g>
    </g>
    <g id="ytick_2">
     <g id="line2d_9">
      <g>
       <use xlink:href="#m2042edfecb" x="70.994" y="126.925825" style="stroke: #000000; stroke-width: 0.8"/>
      </g>
     </g>
     <g id="text_8">
      <!-- 1.2 -->
      <g transform="translate(39.391 133.260489) scale(0.177 -0.177)">
       <use xlink:href="#ArialMT-31"/>
       <use xlink:href="#ArialMT-2e" x="55.615234"/>
       <use xlink:href="#ArialMT-32" x="83.398438"/>
      </g>
     </g>
    </g>
    <g id="ytick_3">
     <g id="line2d_10">
      <g>
       <use xlink:href="#m2042edfecb" x="70.994" y="99.602088" style="stroke: #000000; stroke-width: 0.8"/>
      </g>
     </g>
     <g id="text_9">
      <!-- 1.4 -->
      <g transform="translate(39.391 105.936752) scale(0.177 -0.177)">
       <defs>
        <path id="ArialMT-34" d="M 2069 0 
L 2069 1097 
L 81 1097 
L 81 1613 
L 2172 4581 
L 2631 4581 
L 2631 1613 
L 3250 1613 
L 3250 1097 
L 2631 1097 
L 2631 0 
L 2069 0 
z
M 2069 1613 
L 2069 3678 
L 634 1613 
L 2069 1613 
z
" transform="scale(0.015625)"/>
       </defs>
       <use xlink:href="#ArialMT-31"/>
       <use xlink:href="#ArialMT-2e" x="55.615234"/>
       <use xlink:href="#ArialMT-34" x="83.398438"/>
      </g>
     </g>
    </g>
    <g id="ytick_4">
     <g id="line2d_11">
      <g>
       <use xlink:href="#m2042edfecb" x="70.994" y="72.278351" style="stroke: #000000; stroke-width: 0.8"/>
      </g>
     </g>
     <g id="text_10">
      <!-- 1.6 -->
      <g transform="translate(39.391 78.613015) scale(0.177 -0.177)">
       <defs>
        <path id="ArialMT-36" d="M 3184 3459 
L 2625 3416 
Q 2550 3747 2413 3897 
Q 2184 4138 1850 4138 
Q 1581 4138 1378 3988 
Q 1113 3794 959 3422 
Q 806 3050 800 2363 
Q 1003 2672 1297 2822 
Q 1591 2972 1913 2972 
Q 2475 2972 2870 2558 
Q 3266 2144 3266 1488 
Q 3266 1056 3080 686 
Q 2894 316 2569 119 
Q 2244 -78 1831 -78 
Q 1128 -78 684 439 
Q 241 956 241 2144 
Q 241 3472 731 4075 
Q 1159 4600 1884 4600 
Q 2425 4600 2770 4297 
Q 3116 3994 3184 3459 
z
M 888 1484 
Q 888 1194 1011 928 
Q 1134 663 1356 523 
Q 1578 384 1822 384 
Q 2178 384 2434 671 
Q 2691 959 2691 1453 
Q 2691 1928 2437 2201 
Q 2184 2475 1800 2475 
Q 1419 2475 1153 2201 
Q 888 1928 888 1484 
z
" transform="scale(0.015625)"/>
       </defs>
       <use xlink:href="#ArialMT-31"/>
       <use xlink:href="#ArialMT-2e" x="55.615234"/>
       <use xlink:href="#ArialMT-36" x="83.398438"/>
      </g>
     </g>
    </g>
    <g id="ytick_5">
     <g id="line2d_12">
      <g>
       <use xlink:href="#m2042edfecb" x="70.994" y="44.954614" style="stroke: #000000; stroke-width: 0.8"/>
      </g>
     </g>
     <g id="text_11">
      <!-- 1.8 -->
      <g transform="translate(39.391 51.289278) scale(0.177 -0.177)">
       <defs>
        <path id="ArialMT-38" d="M 1131 2484 
Q 781 2613 612 2850 
Q 444 3088 444 3419 
Q 444 3919 803 4259 
Q 1163 4600 1759 4600 
Q 2359 4600 2725 4251 
Q 3091 3903 3091 3403 
Q 3091 3084 2923 2848 
Q 2756 2613 2416 2484 
Q 2838 2347 3058 2040 
Q 3278 1734 3278 1309 
Q 3278 722 2862 322 
Q 2447 -78 1769 -78 
Q 1091 -78 675 323 
Q 259 725 259 1325 
Q 259 1772 486 2073 
Q 713 2375 1131 2484 
z
M 1019 3438 
Q 1019 3113 1228 2906 
Q 1438 2700 1772 2700 
Q 2097 2700 2305 2904 
Q 2513 3109 2513 3406 
Q 2513 3716 2298 3927 
Q 2084 4138 1766 4138 
Q 1444 4138 1231 3931 
Q 1019 3725 1019 3438 
z
M 838 1322 
Q 838 1081 952 856 
Q 1066 631 1291 507 
Q 1516 384 1775 384 
Q 2178 384 2440 643 
Q 2703 903 2703 1303 
Q 2703 1709 2433 1975 
Q 2163 2241 1756 2241 
Q 1359 2241 1098 1978 
Q 838 1716 838 1322 
z
" transform="scale(0.015625)"/>
       </defs>
       <use xlink:href="#ArialMT-31"/>
       <use xlink:href="#ArialMT-2e" x="55.615234"/>
       <use xlink:href="#ArialMT-38" x="83.398438"/>
      </g>
     </g>
    </g>
    <g id="ytick_6">
     <g id="line2d_13">
      <g>
       <use xlink:href="#m2042edfecb" x="70.994" y="17.630877" style="stroke: #000000; stroke-width: 0.8"/>
      </g>
     </g>
     <g id="text_12">
      <!-- 2.0 -->
      <g transform="translate(39.391 23.965541) scale(0.177 -0.177)">
       <use xlink:href="#ArialMT-32"/>
       <use xlink:href="#ArialMT-2e" x="55.615234"/>
       <use xlink:href="#ArialMT-30" x="83.398438"/>
      </g>
     </g>
    </g>
    <g id="text_13">
     <!-- $\mathit{y}^{*}_{\mathrm{n}}$ -->
     <g transform="translate(30.351 95.57) rotate(-90) scale(0.18 -0.18)">
      <defs>
       <path id="DejaVuSans-Oblique-79" d="M 1588 -325 
Q 1188 -997 936 -1164 
Q 684 -1331 294 -1331 
L -159 -1331 
L -63 -850 
L 269 -850 
Q 509 -850 678 -719 
Q 847 -588 1056 -206 
L 1234 128 
L 459 3500 
L 1069 3500 
L 1650 819 
L 3256 3500 
L 3859 3500 
L 1588 -325 
z
" transform="scale(0.015625)"/>
       <path id="DejaVuSans-2a" d="M 3009 3897 
L 1888 3291 
L 3009 2681 
L 2828 2375 
L 1778 3009 
L 1778 1831 
L 1422 1831 
L 1422 3009 
L 372 2375 
L 191 2681 
L 1313 3291 
L 191 3897 
L 372 4206 
L 1422 3572 
L 1422 4750 
L 1778 4750 
L 1778 3572 
L 2828 4206 
L 3009 3897 
z
" transform="scale(0.015625)"/>
       <path id="DejaVuSans-6e" d="M 3513 2113 
L 3513 0 
L 2938 0 
L 2938 2094 
Q 2938 2591 2744 2837 
Q 2550 3084 2163 3084 
Q 1697 3084 1428 2787 
Q 1159 2491 1159 1978 
L 1159 0 
L 581 0 
L 581 3500 
L 1159 3500 
L 1159 2956 
Q 1366 3272 1645 3428 
Q 1925 3584 2291 3584 
Q 2894 3584 3203 3211 
Q 3513 2838 3513 2113 
z
" transform="scale(0.015625)"/>
      </defs>
      <use xlink:href="#DejaVuSans-Oblique-79" transform="translate(0 0.765625)"/>
      <use xlink:href="#DejaVuSans-2a" transform="translate(63.645833 39.046875) scale(0.7)"/>
      <use xlink:href="#DejaVuSans-6e" transform="translate(59.179688 -26.578125) scale(0.7)"/>
     </g>
    </g>
   </g>
   <g id="PolyCollection_1">
    <path d="M 78.350591 151.7275 
L 78.350591 154.249091 
L 79.836771 154.249091 
L 81.322951 154.249091 
L 82.809131 154.248302 
L 84.295311 153.496943 
L 85.781491 113.063415 
L 87.267671 98.269793 
L 88.753851 86.118093 
L 90.240031 77.805682 
L 91.726211 69.96349 
L 93.212391 66.356891 
L 94.698571 57.920411 
L 96.184751 44.171976 
L 97.670931 27.48199 
L 99.157111 20.909557 
L 100.643291 19.10061 
L 102.129471 18.17052 
L 103.615651 18.026062 
L 105.101831 17.856123 
L 106.588011 17.787228 
L 108.074191 17.710227 
L 109.560371 17.682121 
L 111.046551 17.670603 
L 112.53273 17.660546 
L 114.01891 17.655733 
L 115.50509 17.649427 
L 116.99127 17.647529 
L 118.47745 17.645058 
L 119.96363 17.644634 
L 121.44981 17.642855 
L 122.93599 17.641393 
L 124.42217 17.641393 
L 125.90835 17.641332 
L 127.39453 17.641332 
L 128.88071 17.641332 
L 130.36689 17.640587 
L 131.85307 17.640274 
L 133.33925 17.639964 
L 134.82543 17.639964 
L 136.31161 17.639964 
L 137.79779 17.639622 
L 139.28397 17.639504 
L 140.77015 17.638702 
L 142.25633 17.638702 
L 143.74251 17.638295 
L 145.22869 17.638295 
L 146.71487 17.637456 
L 148.20105 17.637456 
L 149.68723 17.637432 
L 151.17341 17.637432 
L 152.65959 17.637432 
L 154.14577 17.637167 
L 155.63195 17.637167 
L 157.11813 17.636939 
L 158.60431 17.636939 
L 160.09049 17.6363 
L 161.57667 17.635771 
L 163.06285 17.635771 
L 164.54903 17.635461 
L 166.03521 17.635461 
L 167.52139 17.635327 
L 169.00757 17.635327 
L 170.49375 17.635327 
L 171.97993 17.635233 
L 173.46611 17.634476 
L 174.95229 17.634268 
L 176.43847 17.633763 
L 177.92465 17.633763 
L 179.41083 17.63345 
L 180.89701 17.63345 
L 182.38319 17.63345 
L 183.86937 17.633063 
L 185.35555 17.632904 
L 186.84173 17.632595 
L 188.32791 17.632253 
L 189.81409 17.632171 
L 191.30027 17.632171 
L 192.786449 17.632114 
L 194.272629 17.631882 
L 195.758809 17.631841 
L 197.244989 17.63167 
L 198.731169 17.631536 
L 200.217349 17.631528 
L 201.703529 17.631491 
L 203.189709 17.631491 
L 204.675889 17.631451 
L 206.162069 17.631422 
L 207.648249 17.631402 
L 209.134429 17.631308 
L 210.620609 17.6313 
L 212.106789 17.631243 
L 213.592969 17.631202 
L 215.079149 17.63119 
L 216.565329 17.63119 
L 218.051509 17.631174 
L 219.537689 17.631157 
L 221.023869 17.631141 
L 222.510049 17.631109 
L 223.996229 17.631076 
L 225.482409 17.631072 
L 225.482409 17.630909 
L 225.482409 17.630909 
L 223.996229 17.630909 
L 222.510049 17.630909 
L 221.023869 17.630909 
L 219.537689 17.630909 
L 218.051509 17.630921 
L 216.565329 17.630921 
L 215.079149 17.630921 
L 213.592969 17.630921 
L 212.106789 17.630925 
L 210.620609 17.630925 
L 209.134429 17.630925 
L 207.648249 17.630938 
L 206.162069 17.630938 
L 204.675889 17.630942 
L 203.189709 17.630942 
L 201.703529 17.630942 
L 200.217349 17.630958 
L 198.731169 17.63097 
L 197.244989 17.631007 
L 195.758809 17.631007 
L 194.272629 17.631039 
L 192.786449 17.631052 
L 191.30027 17.631068 
L 189.81409 17.631072 
L 188.32791 17.631072 
L 186.84173 17.631088 
L 185.35555 17.631129 
L 183.86937 17.63117 
L 182.38319 17.631182 
L 180.89701 17.631198 
L 179.41083 17.631198 
L 177.92465 17.631198 
L 176.43847 17.631267 
L 174.95229 17.631296 
L 173.46611 17.631349 
L 171.97993 17.631365 
L 170.49375 17.63139 
L 169.00757 17.631434 
L 167.52139 17.631459 
L 166.03521 17.631491 
L 164.54903 17.63152 
L 163.06285 17.631528 
L 161.57667 17.631528 
L 160.09049 17.63154 
L 158.60431 17.63154 
L 157.11813 17.631556 
L 155.63195 17.631573 
L 154.14577 17.631573 
L 152.65959 17.63163 
L 151.17341 17.631654 
L 149.68723 17.631654 
L 148.20105 17.631658 
L 146.71487 17.631695 
L 145.22869 17.631793 
L 143.74251 17.63185 
L 142.25633 17.63185 
L 140.77015 17.631878 
L 139.28397 17.631911 
L 137.79779 17.631911 
L 136.31161 17.631911 
L 134.82543 17.631911 
L 133.33925 17.631911 
L 131.85307 17.631911 
L 130.36689 17.631911 
L 128.88071 17.632041 
L 127.39453 17.632041 
L 125.90835 17.632041 
L 124.42217 17.632179 
L 122.93599 17.632179 
L 121.44981 17.632265 
L 119.96363 17.632314 
L 118.47745 17.632929 
L 116.99127 17.632933 
L 115.50509 17.633189 
L 114.01891 17.63391 
L 112.53273 17.634671 
L 111.046551 17.635429 
L 109.560371 17.637375 
L 108.074191 17.63981 
L 106.588011 17.641271 
L 105.101831 17.641853 
L 103.615651 17.650599 
L 102.129471 17.661714 
L 100.643291 17.73863 
L 99.157111 17.846266 
L 97.670931 18.191855 
L 96.184751 19.70548 
L 94.698571 25.894633 
L 93.212391 30.209251 
L 91.726211 33.710901 
L 90.240031 35.643953 
L 88.753851 35.907163 
L 87.267671 43.990328 
L 85.781491 52.731012 
L 84.295311 65.080174 
L 82.809131 136.33315 
L 81.322951 151.7275 
L 79.836771 151.7275 
L 78.350591 151.7275 
z
" clip-path="url(#pc3e5394119)" style="fill: #1f77b4; fill-opacity: 0.2"/>
   </g>
   <g id="PolyCollection_2">
    <path d="M 78.350591 151.185354 
L 78.350591 154.249049 
L 79.836771 154.232571 
L 81.322951 154.139227 
L 82.809131 152.176022 
L 84.295311 150.080211 
L 85.781491 145.862785 
L 87.267671 143.907265 
L 88.753851 137.223211 
L 90.240031 136.278617 
L 91.726211 134.036325 
L 93.212391 130.662859 
L 94.698571 128.803606 
L 96.184751 128.803606 
L 97.670931 128.162027 
L 99.157111 125.810366 
L 100.643291 121.686806 
L 102.129471 119.771094 
L 103.615651 115.420255 
L 105.101831 110.805591 
L 106.588011 106.311296 
L 108.074191 105.79451 
L 109.560371 101.852862 
L 111.046551 101.852862 
L 112.53273 96.583902 
L 114.01891 94.394838 
L 115.50509 94.394838 
L 116.99127 93.114867 
L 118.47745 90.930534 
L 119.96363 89.946384 
L 121.44981 89.739225 
L 122.93599 89.739225 
L 124.42217 89.739225 
L 125.90835 89.063915 
L 127.39453 89.063915 
L 128.88071 89.063915 
L 130.36689 86.635317 
L 131.85307 86.635317 
L 133.33925 83.403346 
L 134.82543 80.832587 
L 136.31161 76.522951 
L 137.79779 74.984151 
L 139.28397 72.937901 
L 140.77015 72.320999 
L 142.25633 71.661018 
L 143.74251 68.564566 
L 145.22869 68.564566 
L 146.71487 66.78577 
L 148.20105 66.78577 
L 149.68723 66.78577 
L 151.17341 64.540201 
L 152.65959 64.540201 
L 154.14577 64.540201 
L 155.63195 61.135105 
L 157.11813 61.135105 
L 158.60431 61.135105 
L 160.09049 59.411667 
L 161.57667 55.868587 
L 163.06285 55.028059 
L 164.54903 55.028059 
L 166.03521 54.069386 
L 167.52139 54.069386 
L 169.00757 53.508687 
L 170.49375 53.508687 
L 171.97993 50.048147 
L 173.46611 50.048147 
L 174.95229 50.048147 
L 176.43847 49.259857 
L 177.92465 49.259857 
L 179.41083 45.368933 
L 180.89701 45.368933 
L 182.38319 45.368933 
L 183.86937 45.368933 
L 185.35555 45.152759 
L 186.84173 45.152759 
L 188.32791 44.853365 
L 189.81409 44.853365 
L 191.30027 44.393268 
L 192.786449 44.393268 
L 194.272629 44.054799 
L 195.758809 43.240557 
L 197.244989 43.240557 
L 198.731169 43.240557 
L 200.217349 43.240557 
L 201.703529 42.208122 
L 203.189709 42.208122 
L 204.675889 42.208122 
L 206.162069 42.208122 
L 207.648249 42.208122 
L 209.134429 42.208122 
L 210.620609 42.208122 
L 212.106789 41.93206 
L 213.592969 41.759013 
L 215.079149 41.759013 
L 216.565329 41.759013 
L 218.051509 40.986595 
L 219.537689 40.986595 
L 221.023869 40.702375 
L 222.510049 40.410395 
L 223.996229 40.410395 
L 225.482409 40.410395 
L 225.482409 21.490343 
L 225.482409 21.490343 
L 223.996229 21.490343 
L 222.510049 21.490343 
L 221.023869 21.490343 
L 219.537689 21.532108 
L 218.051509 21.532108 
L 216.565329 21.532108 
L 215.079149 21.759749 
L 213.592969 21.759749 
L 212.106789 21.759749 
L 210.620609 21.759749 
L 209.134429 21.759749 
L 207.648249 21.759749 
L 206.162069 21.759749 
L 204.675889 21.759749 
L 203.189709 21.759749 
L 201.703529 21.759749 
L 200.217349 22.199937 
L 198.731169 22.199937 
L 197.244989 22.199937 
L 195.758809 22.199937 
L 194.272629 23.733054 
L 192.786449 23.733054 
L 191.30027 23.733054 
L 189.81409 23.733054 
L 188.32791 23.733054 
L 186.84173 24.031771 
L 185.35555 24.031771 
L 183.86937 24.031771 
L 182.38319 24.093524 
L 180.89701 24.123264 
L 179.41083 24.560351 
L 177.92465 24.560351 
L 176.43847 24.560351 
L 174.95229 24.848103 
L 173.46611 24.848103 
L 171.97993 24.848103 
L 170.49375 24.848103 
L 169.00757 24.848103 
L 167.52139 24.848103 
L 166.03521 24.848103 
L 164.54903 24.848103 
L 163.06285 24.848103 
L 161.57667 24.848103 
L 160.09049 25.171677 
L 158.60431 25.40196 
L 157.11813 25.40196 
L 155.63195 25.40196 
L 154.14577 25.40196 
L 152.65959 25.687813 
L 151.17341 25.687813 
L 149.68723 25.687813 
L 148.20105 26.055493 
L 146.71487 26.633428 
L 145.22869 26.633428 
L 143.74251 29.465041 
L 142.25633 30.459576 
L 140.77015 30.459576 
L 139.28397 30.459576 
L 137.79779 30.459576 
L 136.31161 30.459576 
L 134.82543 30.691725 
L 133.33925 30.691725 
L 131.85307 30.691725 
L 130.36689 30.691725 
L 128.88071 32.328071 
L 127.39453 32.558867 
L 125.90835 32.840148 
L 124.42217 32.840148 
L 122.93599 32.840148 
L 121.44981 32.840148 
L 119.96363 33.086245 
L 118.47745 35.274884 
L 116.99127 35.274884 
L 115.50509 35.274884 
L 114.01891 37.645601 
L 112.53273 37.645601 
L 111.046551 37.645601 
L 109.560371 40.411127 
L 108.074191 40.411127 
L 106.588011 42.937565 
L 105.101831 42.937565 
L 103.615651 42.937565 
L 102.129471 43.981464 
L 100.643291 45.205885 
L 99.157111 48.946308 
L 97.670931 49.392707 
L 96.184751 52.441736 
L 94.698571 54.604189 
L 93.212391 57.3048 
L 91.726211 65.420481 
L 90.240031 73.847677 
L 88.753851 80.195413 
L 87.267671 86.799154 
L 85.781491 89.996562 
L 84.295311 102.897716 
L 82.809131 106.581179 
L 81.322951 115.391046 
L 79.836771 132.6244 
L 78.350591 151.185354 
z
" clip-path="url(#pc3e5394119)" style="fill: #ff7f0e; fill-opacity: 0.2"/>
   </g>
   <g id="patch_3">
    <path d="M 70.994 161.08 
L 70.994 10.8 
" style="fill: none; stroke: #000000; stroke-width: 0.8; stroke-linejoin: miter; stroke-linecap: square"/>
   </g>
   <g id="patch_4">
    <path d="M 232.839 161.08 
L 232.839 10.8 
" style="fill: none; stroke: #000000; stroke-width: 0.8; stroke-linejoin: miter; stroke-linecap: square"/>
   </g>
   <g id="patch_5">
    <path d="M 70.994 161.08 
L 232.839 161.08 
" style="fill: none; stroke: #000000; stroke-width: 0.8; stroke-linejoin: miter; stroke-linecap: square"/>
   </g>
   <g id="patch_6">
    <path d="M 70.994 10.8 
L 232.839 10.8 
" style="fill: none; stroke: #000000; stroke-width: 0.8; stroke-linejoin: miter; stroke-linecap: square"/>
   </g>
   <g id="line2d_14">
    <path d="M 78.350591 154.22005 
L 79.836771 154.22005 
L 81.322951 154.22005 
L 82.809131 153.938808 
L 84.295311 102.360845 
L 85.781491 79.266665 
L 87.267671 67.099953 
L 88.753851 59.206705 
L 90.240031 57.195389 
L 91.726211 53.26178 
L 93.212391 49.526731 
L 94.698571 43.224991 
L 96.184751 24.447415 
L 97.670931 20.014657 
L 99.157111 18.359945 
L 100.643291 18.040605 
L 102.129471 17.803071 
L 103.615651 17.745873 
L 105.101831 17.683856 
L 106.588011 17.663767 
L 108.074191 17.65586 
L 109.560371 17.649231 
L 111.046551 17.643881 
L 112.53273 17.641406 
L 114.01891 17.641153 
L 115.50509 17.638099 
L 116.99127 17.637823 
L 118.47745 17.63744 
L 119.96363 17.636927 
L 121.44981 17.636715 
L 122.93599 17.63542 
L 124.42217 17.63542 
L 125.90835 17.63542 
L 127.39453 17.63542 
L 128.88071 17.63542 
L 130.36689 17.635396 
L 131.85307 17.635396 
L 133.33925 17.635347 
L 134.82543 17.635347 
L 136.31161 17.635347 
L 137.79779 17.635306 
L 139.28397 17.635306 
L 140.77015 17.634777 
L 142.25633 17.634712 
L 143.74251 17.634639 
L 145.22869 17.634248 
L 146.71487 17.633645 
L 148.20105 17.633645 
L 149.68723 17.633613 
L 151.17341 17.633613 
L 152.65959 17.633547 
L 154.14577 17.633124 
L 155.63195 17.633124 
L 157.11813 17.633124 
L 158.60431 17.633075 
L 160.09049 17.632855 
L 161.57667 17.632684 
L 163.06285 17.632684 
L 164.54903 17.632635 
L 166.03521 17.632611 
L 167.52139 17.632253 
L 169.00757 17.632253 
L 170.49375 17.632017 
L 171.97993 17.632017 
L 173.46611 17.631903 
L 174.95229 17.631846 
L 176.43847 17.631797 
L 177.92465 17.631772 
L 179.41083 17.631772 
L 180.89701 17.631772 
L 182.38319 17.631683 
L 183.86937 17.63165 
L 185.35555 17.631544 
L 186.84173 17.631471 
L 188.32791 17.63139 
L 189.81409 17.631373 
L 191.30027 17.631373 
L 192.786449 17.631333 
L 194.272629 17.6313 
L 195.758809 17.631219 
L 197.244989 17.631194 
L 198.731169 17.631145 
L 200.217349 17.631105 
L 201.703529 17.631096 
L 203.189709 17.631096 
L 204.675889 17.631072 
L 206.162069 17.631072 
L 207.648249 17.631064 
L 209.134429 17.631056 
L 210.620609 17.631048 
L 212.106789 17.631039 
L 213.592969 17.631039 
L 215.079149 17.631015 
L 216.565329 17.631015 
L 218.051509 17.631007 
L 219.537689 17.631007 
L 221.023869 17.630991 
L 222.510049 17.630974 
L 223.996229 17.630974 
L 225.482409 17.630966 
" clip-path="url(#pc3e5394119)" style="fill: none; stroke: #1f77b4; stroke-width: 1.21; stroke-linecap: square"/>
   </g>
   <g id="line2d_15">
    <path d="M 78.350591 154.203929 
L 79.836771 153.657079 
L 81.322951 147.721389 
L 82.809131 140.604833 
L 84.295311 136.201881 
L 85.781491 127.954936 
L 87.267671 120.957437 
L 88.753851 117.033276 
L 90.240031 113.856071 
L 91.726211 106.578701 
L 93.212391 99.555774 
L 94.698571 95.621933 
L 96.184751 93.666851 
L 97.670931 90.838665 
L 99.157111 88.410744 
L 100.643291 84.127347 
L 102.129471 83.696224 
L 103.615651 80.148954 
L 105.101831 79.678405 
L 106.588011 77.403783 
L 108.074191 73.473965 
L 109.560371 73.473965 
L 111.046551 69.53466 
L 112.53273 64.969301 
L 114.01891 63.696127 
L 115.50509 63.166131 
L 116.99127 62.340294 
L 118.47745 61.224743 
L 119.96363 58.607652 
L 121.44981 56.603377 
L 122.93599 56.603377 
L 124.42217 56.603377 
L 125.90835 52.590895 
L 127.39453 49.692888 
L 128.88071 49.108111 
L 130.36689 48.372324 
L 131.85307 48.372324 
L 133.33925 46.961384 
L 134.82543 45.458009 
L 136.31161 44.554595 
L 137.79779 44.554595 
L 139.28397 44.554595 
L 140.77015 44.554595 
L 142.25633 43.370954 
L 143.74251 42.358747 
L 145.22869 41.936864 
L 146.71487 41.815094 
L 148.20105 41.072531 
L 149.68723 41.010524 
L 151.17341 39.812319 
L 152.65959 38.753074 
L 154.14577 37.704878 
L 155.63195 37.226663 
L 157.11813 37.226663 
L 158.60431 36.877239 
L 160.09049 35.920285 
L 161.57667 35.59838 
L 163.06285 35.59838 
L 164.54903 35.59838 
L 166.03521 35.59838 
L 167.52139 35.59838 
L 169.00757 35.113063 
L 170.49375 35.113063 
L 171.97993 34.572824 
L 173.46611 34.572824 
L 174.95229 34.572824 
L 176.43847 33.107191 
L 177.92465 33.107191 
L 179.41083 32.865963 
L 180.89701 32.865963 
L 182.38319 32.75018 
L 183.86937 32.612821 
L 185.35555 32.612821 
L 186.84173 32.612821 
L 188.32791 32.558565 
L 189.81409 32.558565 
L 191.30027 32.558565 
L 192.786449 32.558565 
L 194.272629 32.230317 
L 195.758809 31.770538 
L 197.244989 31.770538 
L 198.731169 31.770538 
L 200.217349 31.486073 
L 201.703529 31.075355 
L 203.189709 31.075355 
L 204.675889 31.075355 
L 206.162069 31.075355 
L 207.648249 31.075355 
L 209.134429 31.075355 
L 210.620609 31.037983 
L 212.106789 30.802802 
L 213.592969 30.802802 
L 215.079149 30.802802 
L 216.565329 30.772956 
L 218.051509 30.772956 
L 219.537689 30.719653 
L 221.023869 30.642578 
L 222.510049 30.52273 
L 223.996229 30.52273 
L 225.482409 30.52273 
" clip-path="url(#pc3e5394119)" style="fill: none; stroke: #ff7f0e; stroke-width: 1.21; stroke-linecap: square"/>
   </g>
   <g id="legend_1">
    <g id="line2d_16">
     <path d="M 124.170447 70.641297 
L 141.870447 70.641297 
L 159.570447 70.641297 
" style="fill: none; stroke: #1f77b4; stroke-width: 1.21; stroke-linecap: square"/>
    </g>
    <g id="text_14">
     <!-- BO -->
     <g transform="translate(164.880447 76.836297) scale(0.177 -0.177)">
      <defs>
       <path id="ArialMT-42" d="M 469 0 
L 469 4581 
L 2188 4581 
Q 2713 4581 3030 4442 
Q 3347 4303 3526 4014 
Q 3706 3725 3706 3409 
Q 3706 3116 3547 2856 
Q 3388 2597 3066 2438 
Q 3481 2316 3704 2022 
Q 3928 1728 3928 1328 
Q 3928 1006 3792 729 
Q 3656 453 3456 303 
Q 3256 153 2954 76 
Q 2653 0 2216 0 
L 469 0 
z
M 1075 2656 
L 2066 2656 
Q 2469 2656 2644 2709 
Q 2875 2778 2992 2937 
Q 3109 3097 3109 3338 
Q 3109 3566 3000 3739 
Q 2891 3913 2687 3977 
Q 2484 4041 1991 4041 
L 1075 4041 
L 1075 2656 
z
M 1075 541 
L 2216 541 
Q 2509 541 2628 563 
Q 2838 600 2978 687 
Q 3119 775 3209 942 
Q 3300 1109 3300 1328 
Q 3300 1584 3169 1773 
Q 3038 1963 2805 2039 
Q 2572 2116 2134 2116 
L 1075 2116 
L 1075 541 
z
" transform="scale(0.015625)"/>
       <path id="ArialMT-4f" d="M 309 2231 
Q 309 3372 921 4017 
Q 1534 4663 2503 4663 
Q 3138 4663 3647 4359 
Q 4156 4056 4423 3514 
Q 4691 2972 4691 2284 
Q 4691 1588 4409 1038 
Q 4128 488 3612 205 
Q 3097 -78 2500 -78 
Q 1853 -78 1343 234 
Q 834 547 571 1087 
Q 309 1628 309 2231 
z
M 934 2222 
Q 934 1394 1379 917 
Q 1825 441 2497 441 
Q 3181 441 3623 922 
Q 4066 1403 4066 2288 
Q 4066 2847 3877 3264 
Q 3688 3681 3323 3911 
Q 2959 4141 2506 4141 
Q 1863 4141 1398 3698 
Q 934 3256 934 2222 
z
" transform="scale(0.015625)"/>
      </defs>
      <use xlink:href="#ArialMT-42"/>
      <use xlink:href="#ArialMT-4f" x="66.699219"/>
     </g>
    </g>
    <g id="line2d_17">
     <path d="M 124.170447 92.1385 
L 141.870447 92.1385 
L 159.570447 92.1385 
" style="fill: none; stroke: #ff7f0e; stroke-width: 1.21; stroke-linecap: square"/>
    </g>
    <g id="text_15">
     <!-- Random -->
     <g transform="translate(164.880447 98.3335) scale(0.177 -0.177)">
      <defs>
       <path id="ArialMT-52" d="M 503 0 
L 503 4581 
L 2534 4581 
Q 3147 4581 3465 4457 
Q 3784 4334 3975 4021 
Q 4166 3709 4166 3331 
Q 4166 2844 3850 2509 
Q 3534 2175 2875 2084 
Q 3116 1969 3241 1856 
Q 3506 1613 3744 1247 
L 4541 0 
L 3778 0 
L 3172 953 
Q 2906 1366 2734 1584 
Q 2563 1803 2427 1890 
Q 2291 1978 2150 2013 
Q 2047 2034 1813 2034 
L 1109 2034 
L 1109 0 
L 503 0 
z
M 1109 2559 
L 2413 2559 
Q 2828 2559 3062 2645 
Q 3297 2731 3419 2920 
Q 3541 3109 3541 3331 
Q 3541 3656 3305 3865 
Q 3069 4075 2559 4075 
L 1109 4075 
L 1109 2559 
z
" transform="scale(0.015625)"/>
       <path id="ArialMT-61" d="M 2588 409 
Q 2275 144 1986 34 
Q 1697 -75 1366 -75 
Q 819 -75 525 192 
Q 231 459 231 875 
Q 231 1119 342 1320 
Q 453 1522 633 1644 
Q 813 1766 1038 1828 
Q 1203 1872 1538 1913 
Q 2219 1994 2541 2106 
Q 2544 2222 2544 2253 
Q 2544 2597 2384 2738 
Q 2169 2928 1744 2928 
Q 1347 2928 1158 2789 
Q 969 2650 878 2297 
L 328 2372 
Q 403 2725 575 2942 
Q 747 3159 1072 3276 
Q 1397 3394 1825 3394 
Q 2250 3394 2515 3294 
Q 2781 3194 2906 3042 
Q 3031 2891 3081 2659 
Q 3109 2516 3109 2141 
L 3109 1391 
Q 3109 606 3145 398 
Q 3181 191 3288 0 
L 2700 0 
Q 2613 175 2588 409 
z
M 2541 1666 
Q 2234 1541 1622 1453 
Q 1275 1403 1131 1340 
Q 988 1278 909 1158 
Q 831 1038 831 891 
Q 831 666 1001 516 
Q 1172 366 1500 366 
Q 1825 366 2078 508 
Q 2331 650 2450 897 
Q 2541 1088 2541 1459 
L 2541 1666 
z
" transform="scale(0.015625)"/>
       <path id="ArialMT-6e" d="M 422 0 
L 422 3319 
L 928 3319 
L 928 2847 
Q 1294 3394 1984 3394 
Q 2284 3394 2536 3286 
Q 2788 3178 2913 3003 
Q 3038 2828 3088 2588 
Q 3119 2431 3119 2041 
L 3119 0 
L 2556 0 
L 2556 2019 
Q 2556 2363 2490 2533 
Q 2425 2703 2258 2804 
Q 2091 2906 1866 2906 
Q 1506 2906 1245 2678 
Q 984 2450 984 1813 
L 984 0 
L 422 0 
z
" transform="scale(0.015625)"/>
       <path id="ArialMT-64" d="M 2575 0 
L 2575 419 
Q 2259 -75 1647 -75 
Q 1250 -75 917 144 
Q 584 363 401 755 
Q 219 1147 219 1656 
Q 219 2153 384 2558 
Q 550 2963 881 3178 
Q 1213 3394 1622 3394 
Q 1922 3394 2156 3267 
Q 2391 3141 2538 2938 
L 2538 4581 
L 3097 4581 
L 3097 0 
L 2575 0 
z
M 797 1656 
Q 797 1019 1065 703 
Q 1334 388 1700 388 
Q 2069 388 2326 689 
Q 2584 991 2584 1609 
Q 2584 2291 2321 2609 
Q 2059 2928 1675 2928 
Q 1300 2928 1048 2622 
Q 797 2316 797 1656 
z
" transform="scale(0.015625)"/>
       <path id="ArialMT-6f" d="M 213 1659 
Q 213 2581 725 3025 
Q 1153 3394 1769 3394 
Q 2453 3394 2887 2945 
Q 3322 2497 3322 1706 
Q 3322 1066 3130 698 
Q 2938 331 2570 128 
Q 2203 -75 1769 -75 
Q 1072 -75 642 372 
Q 213 819 213 1659 
z
M 791 1659 
Q 791 1022 1069 705 
Q 1347 388 1769 388 
Q 2188 388 2466 706 
Q 2744 1025 2744 1678 
Q 2744 2294 2464 2611 
Q 2184 2928 1769 2928 
Q 1347 2928 1069 2612 
Q 791 2297 791 1659 
z
" transform="scale(0.015625)"/>
       <path id="ArialMT-6d" d="M 422 0 
L 422 3319 
L 925 3319 
L 925 2853 
Q 1081 3097 1340 3245 
Q 1600 3394 1931 3394 
Q 2300 3394 2536 3241 
Q 2772 3088 2869 2813 
Q 3263 3394 3894 3394 
Q 4388 3394 4653 3120 
Q 4919 2847 4919 2278 
L 4919 0 
L 4359 0 
L 4359 2091 
Q 4359 2428 4304 2576 
Q 4250 2725 4106 2815 
Q 3963 2906 3769 2906 
Q 3419 2906 3187 2673 
Q 2956 2441 2956 1928 
L 2956 0 
L 2394 0 
L 2394 2156 
Q 2394 2531 2256 2718 
Q 2119 2906 1806 2906 
Q 1569 2906 1367 2781 
Q 1166 2656 1075 2415 
Q 984 2175 984 1722 
L 984 0 
L 422 0 
z
" transform="scale(0.015625)"/>
      </defs>
      <use xlink:href="#ArialMT-52"/>
      <use xlink:href="#ArialMT-61" x="72.216797"/>
      <use xlink:href="#ArialMT-6e" x="127.832031"/>
      <use xlink:href="#ArialMT-64" x="183.447266"/>
      <use xlink:href="#ArialMT-6f" x="239.0625"/>
      <use xlink:href="#ArialMT-6d" x="294.677734"/>
     </g>
    </g>
    <g id="line2d_18">
     <path d="M 124.170447 113.635703 
L 141.870447 113.635703 
L 159.570447 113.635703 
" style="fill: none; stroke-dasharray: 3.811,1.648; stroke-dashoffset: 0; stroke: #000000; stroke-width: 1.03"/>
    </g>
    <g id="text_16">
     <!-- Theory -->
     <g transform="translate(164.880447 119.830703) scale(0.177 -0.177)">
      <defs>
       <path id="ArialMT-54" d="M 1659 0 
L 1659 4041 
L 150 4041 
L 150 4581 
L 3781 4581 
L 3781 4041 
L 2266 4041 
L 2266 0 
L 1659 0 
z
" transform="scale(0.015625)"/>
       <path id="ArialMT-68" d="M 422 0 
L 422 4581 
L 984 4581 
L 984 2938 
Q 1378 3394 1978 3394 
Q 2347 3394 2619 3248 
Q 2891 3103 3008 2847 
Q 3125 2591 3125 2103 
L 3125 0 
L 2563 0 
L 2563 2103 
Q 2563 2525 2380 2717 
Q 2197 2909 1863 2909 
Q 1613 2909 1392 2779 
Q 1172 2650 1078 2428 
Q 984 2206 984 1816 
L 984 0 
L 422 0 
z
" transform="scale(0.015625)"/>
       <path id="ArialMT-65" d="M 2694 1069 
L 3275 997 
Q 3138 488 2766 206 
Q 2394 -75 1816 -75 
Q 1088 -75 661 373 
Q 234 822 234 1631 
Q 234 2469 665 2931 
Q 1097 3394 1784 3394 
Q 2450 3394 2872 2941 
Q 3294 2488 3294 1666 
Q 3294 1616 3291 1516 
L 816 1516 
Q 847 969 1125 678 
Q 1403 388 1819 388 
Q 2128 388 2347 550 
Q 2566 713 2694 1069 
z
M 847 1978 
L 2700 1978 
Q 2663 2397 2488 2606 
Q 2219 2931 1791 2931 
Q 1403 2931 1139 2672 
Q 875 2413 847 1978 
z
" transform="scale(0.015625)"/>
       <path id="ArialMT-72" d="M 416 0 
L 416 3319 
L 922 3319 
L 922 2816 
Q 1116 3169 1280 3281 
Q 1444 3394 1641 3394 
Q 1925 3394 2219 3213 
L 2025 2691 
Q 1819 2813 1613 2813 
Q 1428 2813 1281 2702 
Q 1134 2591 1072 2394 
Q 978 2094 978 1738 
L 978 0 
L 416 0 
z
" transform="scale(0.015625)"/>
       <path id="ArialMT-79" d="M 397 -1278 
L 334 -750 
Q 519 -800 656 -800 
Q 844 -800 956 -737 
Q 1069 -675 1141 -563 
Q 1194 -478 1313 -144 
Q 1328 -97 1363 -6 
L 103 3319 
L 709 3319 
L 1400 1397 
Q 1534 1031 1641 628 
Q 1738 1016 1872 1384 
L 2581 3319 
L 3144 3319 
L 1881 -56 
Q 1678 -603 1566 -809 
Q 1416 -1088 1222 -1217 
Q 1028 -1347 759 -1347 
Q 597 -1347 397 -1278 
z
" transform="scale(0.015625)"/>
      </defs>
      <use xlink:href="#ArialMT-54"/>
      <use xlink:href="#ArialMT-68" x="61.083984"/>
      <use xlink:href="#ArialMT-65" x="116.699219"/>
      <use xlink:href="#ArialMT-6f" x="172.314453"/>
      <use xlink:href="#ArialMT-72" x="227.929688"/>
      <use xlink:href="#ArialMT-79" x="261.230469"/>
     </g>
    </g>
    <g id="line2d_19">
     <path d="M 124.170447 138.778 
L 141.870447 138.778 
L 159.570447 138.778 
" style="fill: none; stroke-dasharray: 3.811,1.648; stroke-dashoffset: 0; stroke: #808080; stroke-width: 1.03"/>
    </g>
    <g id="text_17">
     <!-- $y^{*}$ -->
     <g transform="translate(164.880447 144.973) scale(0.177 -0.177)">
      <use xlink:href="#DejaVuSans-Oblique-79" transform="translate(0 0.765625)"/>
      <use xlink:href="#DejaVuSans-2a" transform="translate(63.645833 39.046875) scale(0.7)"/>
     </g>
    </g>
   </g>
  </g>
 </g>
 <defs>
  <clipPath id="pc3e5394119">
   <rect x="70.994" y="10.8" width="161.845" height="150.28"/>
  </clipPath>
 </defs>
</svg>
