<?xml version="1.0" encoding="utf-8" standalone="no"?>
<!DOCTYPE svg PUBLIC "-//W3C//DTD SVG 1.1//EN"
  "http://www.w3.org/Graphics/SVG/1.1/DTD/svg11.dtd">
<svg xmlns:xlink="http://www.w3.org/1999/xlink" width="252pt" height="216pt" viewBox="0 0 252 216" xmlns="http://www.w3.org/2000/svg" version="1.1">
 <metadata>
  <rdf:RDF xmlns:dc="http://purl.org/dc/elements/1.1/" xmlns:cc="http://creativecommons.org/ns#" xmlns:rdf="http://www.w3.org/1999/02/22-rdf-syntax-ns#">
   <cc:Work>
    <dc:type rdf:resource="http://purl.org/dc/dcmitype/StillImage"/>
    <dc:date>2025-07-18T10:08:49.842119</dc:date>
    <dc:format>image/svg+xml</dc:format>
    <dc:creator>
     <cc:Agent>
      <dc:title>Matplotlib v3.9.2, https://matplotlib.org/</dc:title>
     </cc:Agent>
    </dc:creator>
   </cc:Work>
  </rdf:RDF>
 </metadata>
 <defs>
  <style type="text/css">*{stroke-linejoin: round; stroke-linecap: butt}</style>
 </defs>
 <g id="figure_1">
  <g id="patch_1">
   <path d="M 0 216 
L 252 216 
L 252 0 
L 0 0 
z
" style="fill: #ffffff"/>
  </g>
  <g id="axes_1">
   <g id="patch_2">
    <path d="M 52.31 170.44 
L 239.547273 170.44 
L 239.547273 10.8 
L 52.31 10.8 
z
" style="fill: #ffffff"/>
   </g>
   <g id="matplotlib.axis_1">
    <g id="xtick_1">
     <g id="line2d_1">
      <defs>
       <path id="m3bef3da55a" d="M 0 0 
L 0 3.5 
" style="stroke: #000000; stroke-width: 0.8"/>
      </defs>
      <g>
       <use xlink:href="#m3bef3da55a" x="59.101435" y="170.44" style="stroke: #000000; stroke-width: 0.8"/>
      </g>
     </g>
     <g id="text_1">
      <!-- 0 -->
      <g transform="translate(55.570239 186.530422) scale(0.127 -0.127)">
       <defs>
        <path id="ArialMT-30" d="M 266 2259 
Q 266 3072 433 3567 
Q 600 4063 929 4331 
Q 1259 4600 1759 4600 
Q 2128 4600 2406 4451 
Q 2684 4303 2865 4023 
Q 3047 3744 3150 3342 
Q 3253 2941 3253 2259 
Q 3253 1453 3087 958 
Q 2922 463 2592 192 
Q 2263 -78 1759 -78 
Q 1097 -78 719 397 
Q 266 969 266 2259 
z
M 844 2259 
Q 844 1131 1108 757 
Q 1372 384 1759 384 
Q 2147 384 2411 759 
Q 2675 1134 2675 2259 
Q 2675 3391 2411 3762 
Q 2147 4134 1753 4134 
Q 1366 4134 1134 3806 
Q 844 3388 844 2259 
z
" transform="scale(0.015625)"/>
       </defs>
       <use xlink:href="#ArialMT-30"/>
      </g>
     </g>
    </g>
    <g id="xtick_2">
     <g id="line2d_2">
      <g>
       <use xlink:href="#m3bef3da55a" x="93.488445" y="170.44" style="stroke: #000000; stroke-width: 0.8"/>
      </g>
     </g>
     <g id="text_2">
      <!-- 20 -->
      <g transform="translate(86.426055 186.530422) scale(0.127 -0.127)">
       <defs>
        <path id="ArialMT-32" d="M 3222 541 
L 3222 0 
L 194 0 
Q 188 203 259 391 
Q 375 700 629 1000 
Q 884 1300 1366 1694 
Q 2113 2306 2375 2664 
Q 2638 3022 2638 3341 
Q 2638 3675 2398 3904 
Q 2159 4134 1775 4134 
Q 1369 4134 1125 3890 
Q 881 3647 878 3216 
L 300 3275 
Q 359 3922 746 4261 
Q 1134 4600 1788 4600 
Q 2447 4600 2831 4234 
Q 3216 3869 3216 3328 
Q 3216 3053 3103 2787 
Q 2991 2522 2730 2228 
Q 2469 1934 1863 1422 
Q 1356 997 1212 845 
Q 1069 694 975 541 
L 3222 541 
z
" transform="scale(0.015625)"/>
       </defs>
       <use xlink:href="#ArialMT-32"/>
       <use xlink:href="#ArialMT-30" x="55.615234"/>
      </g>
     </g>
    </g>
    <g id="xtick_3">
     <g id="line2d_3">
      <g>
       <use xlink:href="#m3bef3da55a" x="127.875456" y="170.44" style="stroke: #000000; stroke-width: 0.8"/>
      </g>
     </g>
     <g id="text_3">
      <!-- 40 -->
      <g transform="translate(120.813065 186.530422) scale(0.127 -0.127)">
       <defs>
        <path id="ArialMT-34" d="M 2069 0 
L 2069 1097 
L 81 1097 
L 81 1613 
L 2172 4581 
L 2631 4581 
L 2631 1613 
L 3250 1613 
L 3250 1097 
L 2631 1097 
L 2631 0 
L 2069 0 
z
M 2069 1613 
L 2069 3678 
L 634 1613 
L 2069 1613 
z
" transform="scale(0.015625)"/>
       </defs>
       <use xlink:href="#ArialMT-34"/>
       <use xlink:href="#ArialMT-30" x="55.615234"/>
      </g>
     </g>
    </g>
    <g id="xtick_4">
     <g id="line2d_4">
      <g>
       <use xlink:href="#m3bef3da55a" x="162.262466" y="170.44" style="stroke: #000000; stroke-width: 0.8"/>
      </g>
     </g>
     <g id="text_4">
      <!-- 60 -->
      <g transform="translate(155.200076 186.530422) scale(0.127 -0.127)">
       <defs>
        <path id="ArialMT-36" d="M 3184 3459 
L 2625 3416 
Q 2550 3747 2413 3897 
Q 2184 4138 1850 4138 
Q 1581 4138 1378 3988 
Q 1113 3794 959 3422 
Q 806 3050 800 2363 
Q 1003 2672 1297 2822 
Q 1591 2972 1913 2972 
Q 2475 2972 2870 2558 
Q 3266 2144 3266 1488 
Q 3266 1056 3080 686 
Q 2894 316 2569 119 
Q 2244 -78 1831 -78 
Q 1128 -78 684 439 
Q 241 956 241 2144 
Q 241 3472 731 4075 
Q 1159 4600 1884 4600 
Q 2425 4600 2770 4297 
Q 3116 3994 3184 3459 
z
M 888 1484 
Q 888 1194 1011 928 
Q 1134 663 1356 523 
Q 1578 384 1822 384 
Q 2178 384 2434 671 
Q 2691 959 2691 1453 
Q 2691 1928 2437 2201 
Q 2184 2475 1800 2475 
Q 1419 2475 1153 2201 
Q 888 1928 888 1484 
z
" transform="scale(0.015625)"/>
       </defs>
       <use xlink:href="#ArialMT-36"/>
       <use xlink:href="#ArialMT-30" x="55.615234"/>
      </g>
     </g>
    </g>
    <g id="xtick_5">
     <g id="line2d_5">
      <g>
       <use xlink:href="#m3bef3da55a" x="196.649477" y="170.44" style="stroke: #000000; stroke-width: 0.8"/>
      </g>
     </g>
     <g id="text_5">
      <!-- 80 -->
      <g transform="translate(189.587086 186.530422) scale(0.127 -0.127)">
       <defs>
        <path id="ArialMT-38" d="M 1131 2484 
Q 781 2613 612 2850 
Q 444 3088 444 3419 
Q 444 3919 803 4259 
Q 1163 4600 1759 4600 
Q 2359 4600 2725 4251 
Q 3091 3903 3091 3403 
Q 3091 3084 2923 2848 
Q 2756 2613 2416 2484 
Q 2838 2347 3058 2040 
Q 3278 1734 3278 1309 
Q 3278 722 2862 322 
Q 2447 -78 1769 -78 
Q 1091 -78 675 323 
Q 259 725 259 1325 
Q 259 1772 486 2073 
Q 713 2375 1131 2484 
z
M 1019 3438 
Q 1019 3113 1228 2906 
Q 1438 2700 1772 2700 
Q 2097 2700 2305 2904 
Q 2513 3109 2513 3406 
Q 2513 3716 2298 3927 
Q 2084 4138 1766 4138 
Q 1444 4138 1231 3931 
Q 1019 3725 1019 3438 
z
M 838 1322 
Q 838 1081 952 856 
Q 1066 631 1291 507 
Q 1516 384 1775 384 
Q 2178 384 2440 643 
Q 2703 903 2703 1303 
Q 2703 1709 2433 1975 
Q 2163 2241 1756 2241 
Q 1359 2241 1098 1978 
Q 838 1716 838 1322 
z
" transform="scale(0.015625)"/>
       </defs>
       <use xlink:href="#ArialMT-38"/>
       <use xlink:href="#ArialMT-30" x="55.615234"/>
      </g>
     </g>
    </g>
    <g id="xtick_6">
     <g id="line2d_6">
      <g>
       <use xlink:href="#m3bef3da55a" x="231.036488" y="170.44" style="stroke: #000000; stroke-width: 0.8"/>
      </g>
     </g>
     <g id="text_6">
      <!-- 100 -->
      <g transform="translate(220.442902 186.530422) scale(0.127 -0.127)">
       <defs>
        <path id="ArialMT-31" d="M 2384 0 
L 1822 0 
L 1822 3584 
Q 1619 3391 1289 3197 
Q 959 3003 697 2906 
L 697 3450 
Q 1169 3672 1522 3987 
Q 1875 4303 2022 4600 
L 2384 4600 
L 2384 0 
z
" transform="scale(0.015625)"/>
       </defs>
       <use xlink:href="#ArialMT-31"/>
       <use xlink:href="#ArialMT-30" x="55.615234"/>
       <use xlink:href="#ArialMT-30" x="111.230469"/>
      </g>
     </g>
    </g>
    <g id="text_7">
     <!-- $i$ -->
     <g transform="translate(144.108636 202.359703) scale(0.13 -0.13)">
      <defs>
       <path id="DejaVuSans-Oblique-69" d="M 1172 4863 
L 1747 4863 
L 1606 4134 
L 1031 4134 
L 1172 4863 
z
M 909 3500 
L 1484 3500 
L 800 0 
L 225 0 
L 909 3500 
z
" transform="scale(0.015625)"/>
      </defs>
      <use xlink:href="#DejaVuSans-Oblique-69" transform="translate(0 0.015625)"/>
     </g>
    </g>
   </g>
   <g id="matplotlib.axis_2">
    <g id="ytick_1">
     <g id="line2d_7">
      <defs>
       <path id="m552d0080ef" d="M 0 0 
L -3.5 0 
" style="stroke: #000000; stroke-width: 0.8"/>
      </defs>
      <g>
       <use xlink:href="#m552d0080ef" x="52.31" y="156.126255" style="stroke: #000000; stroke-width: 0.8"/>
      </g>
     </g>
     <g id="text_8">
      <!-- 0.9 -->
      <g transform="translate(27.657 160.671466) scale(0.127 -0.127)">
       <defs>
        <path id="ArialMT-2e" d="M 581 0 
L 581 641 
L 1222 641 
L 1222 0 
L 581 0 
z
" transform="scale(0.015625)"/>
        <path id="ArialMT-39" d="M 350 1059 
L 891 1109 
Q 959 728 1153 556 
Q 1347 384 1650 384 
Q 1909 384 2104 503 
Q 2300 622 2425 820 
Q 2550 1019 2634 1356 
Q 2719 1694 2719 2044 
Q 2719 2081 2716 2156 
Q 2547 1888 2255 1720 
Q 1963 1553 1622 1553 
Q 1053 1553 659 1965 
Q 266 2378 266 3053 
Q 266 3750 677 4175 
Q 1088 4600 1706 4600 
Q 2153 4600 2523 4359 
Q 2894 4119 3086 3673 
Q 3278 3228 3278 2384 
Q 3278 1506 3087 986 
Q 2897 466 2520 194 
Q 2144 -78 1638 -78 
Q 1100 -78 759 220 
Q 419 519 350 1059 
z
M 2653 3081 
Q 2653 3566 2395 3850 
Q 2138 4134 1775 4134 
Q 1400 4134 1122 3828 
Q 844 3522 844 3034 
Q 844 2597 1108 2323 
Q 1372 2050 1759 2050 
Q 2150 2050 2401 2323 
Q 2653 2597 2653 3081 
z
" transform="scale(0.015625)"/>
       </defs>
       <use xlink:href="#ArialMT-30"/>
       <use xlink:href="#ArialMT-2e" x="55.615234"/>
       <use xlink:href="#ArialMT-39" x="83.398438"/>
      </g>
     </g>
    </g>
    <g id="ytick_2">
     <g id="line2d_8">
      <g>
       <use xlink:href="#m552d0080ef" x="52.31" y="135.119563" style="stroke: #000000; stroke-width: 0.8"/>
      </g>
     </g>
     <g id="text_9">
      <!-- 1.0 -->
      <g transform="translate(27.657 139.664774) scale(0.127 -0.127)">
       <use xlink:href="#ArialMT-31"/>
       <use xlink:href="#ArialMT-2e" x="55.615234"/>
       <use xlink:href="#ArialMT-30" x="83.398438"/>
      </g>
     </g>
    </g>
    <g id="ytick_3">
     <g id="line2d_9">
      <g>
       <use xlink:href="#m552d0080ef" x="52.31" y="114.112871" style="stroke: #000000; stroke-width: 0.8"/>
      </g>
     </g>
     <g id="text_10">
      <!-- 1.1 -->
      <g transform="translate(27.657 118.658082) scale(0.127 -0.127)">
       <use xlink:href="#ArialMT-31"/>
       <use xlink:href="#ArialMT-2e" x="55.615234"/>
       <use xlink:href="#ArialMT-31" x="83.398438"/>
      </g>
     </g>
    </g>
    <g id="ytick_4">
     <g id="line2d_10">
      <g>
       <use xlink:href="#m552d0080ef" x="52.31" y="93.106179" style="stroke: #000000; stroke-width: 0.8"/>
      </g>
     </g>
     <g id="text_11">
      <!-- 1.2 -->
      <g transform="translate(27.657 97.651389) scale(0.127 -0.127)">
       <use xlink:href="#ArialMT-31"/>
       <use xlink:href="#ArialMT-2e" x="55.615234"/>
       <use xlink:href="#ArialMT-32" x="83.398438"/>
      </g>
     </g>
    </g>
    <g id="ytick_5">
     <g id="line2d_11">
      <g>
       <use xlink:href="#m552d0080ef" x="52.31" y="72.099486" style="stroke: #000000; stroke-width: 0.8"/>
      </g>
     </g>
     <g id="text_12">
      <!-- 1.3 -->
      <g transform="translate(27.657 76.644697) scale(0.127 -0.127)">
       <defs>
        <path id="ArialMT-33" d="M 269 1209 
L 831 1284 
Q 928 806 1161 595 
Q 1394 384 1728 384 
Q 2125 384 2398 659 
Q 2672 934 2672 1341 
Q 2672 1728 2419 1979 
Q 2166 2231 1775 2231 
Q 1616 2231 1378 2169 
L 1441 2663 
Q 1497 2656 1531 2656 
Q 1891 2656 2178 2843 
Q 2466 3031 2466 3422 
Q 2466 3731 2256 3934 
Q 2047 4138 1716 4138 
Q 1388 4138 1169 3931 
Q 950 3725 888 3313 
L 325 3413 
Q 428 3978 793 4289 
Q 1159 4600 1703 4600 
Q 2078 4600 2393 4439 
Q 2709 4278 2876 4000 
Q 3044 3722 3044 3409 
Q 3044 3113 2884 2869 
Q 2725 2625 2413 2481 
Q 2819 2388 3044 2092 
Q 3269 1797 3269 1353 
Q 3269 753 2831 336 
Q 2394 -81 1725 -81 
Q 1122 -81 723 278 
Q 325 638 269 1209 
z
" transform="scale(0.015625)"/>
       </defs>
       <use xlink:href="#ArialMT-31"/>
       <use xlink:href="#ArialMT-2e" x="55.615234"/>
       <use xlink:href="#ArialMT-33" x="83.398438"/>
      </g>
     </g>
    </g>
    <g id="ytick_6">
     <g id="line2d_12">
      <g>
       <use xlink:href="#m552d0080ef" x="52.31" y="51.092794" style="stroke: #000000; stroke-width: 0.8"/>
      </g>
     </g>
     <g id="text_13">
      <!-- 1.4 -->
      <g transform="translate(27.657 55.638005) scale(0.127 -0.127)">
       <use xlink:href="#ArialMT-31"/>
       <use xlink:href="#ArialMT-2e" x="55.615234"/>
       <use xlink:href="#ArialMT-34" x="83.398438"/>
      </g>
     </g>
    </g>
    <g id="ytick_7">
     <g id="line2d_13">
      <g>
       <use xlink:href="#m552d0080ef" x="52.31" y="30.086102" style="stroke: #000000; stroke-width: 0.8"/>
      </g>
     </g>
     <g id="text_14">
      <!-- 1.5 -->
      <g transform="translate(27.657 34.631313) scale(0.127 -0.127)">
       <defs>
        <path id="ArialMT-35" d="M 266 1200 
L 856 1250 
Q 922 819 1161 601 
Q 1400 384 1738 384 
Q 2144 384 2425 690 
Q 2706 997 2706 1503 
Q 2706 1984 2436 2262 
Q 2166 2541 1728 2541 
Q 1456 2541 1237 2417 
Q 1019 2294 894 2097 
L 366 2166 
L 809 4519 
L 3088 4519 
L 3088 3981 
L 1259 3981 
L 1013 2750 
Q 1425 3038 1878 3038 
Q 2478 3038 2890 2622 
Q 3303 2206 3303 1553 
Q 3303 931 2941 478 
Q 2500 -78 1738 -78 
Q 1113 -78 717 272 
Q 322 622 266 1200 
z
" transform="scale(0.015625)"/>
       </defs>
       <use xlink:href="#ArialMT-31"/>
       <use xlink:href="#ArialMT-2e" x="55.615234"/>
       <use xlink:href="#ArialMT-35" x="83.398438"/>
      </g>
     </g>
    </g>
    <g id="text_15">
     <!-- $\mathrm{EF}$ -->
     <g transform="translate(21.07325 98.485) rotate(-90) scale(0.13 -0.13)">
      <defs>
       <path id="DejaVuSans-45" d="M 628 4666 
L 3578 4666 
L 3578 4134 
L 1259 4134 
L 1259 2753 
L 3481 2753 
L 3481 2222 
L 1259 2222 
L 1259 531 
L 3634 531 
L 3634 0 
L 628 0 
L 628 4666 
z
" transform="scale(0.015625)"/>
       <path id="DejaVuSans-46" d="M 628 4666 
L 3309 4666 
L 3309 4134 
L 1259 4134 
L 1259 2759 
L 3109 2759 
L 3109 2228 
L 1259 2228 
L 1259 0 
L 628 0 
L 628 4666 
z
" transform="scale(0.015625)"/>
      </defs>
      <use xlink:href="#DejaVuSans-45" transform="translate(0 0.09375)"/>
      <use xlink:href="#DejaVuSans-46" transform="translate(63.183594 0.09375)"/>
     </g>
    </g>
   </g>
   <g id="line2d_14">
    <path d="M 60.820785 135.020077 
L 62.540136 138.704346 
L 64.259486 149.384294 
L 65.978837 163.183636 
L 67.698187 39.976632 
L 69.417538 53.356609 
L 71.136888 52.499085 
L 72.856239 45.325435 
L 74.575589 51.520811 
L 76.29494 35.82131 
L 78.01429 32.324832 
L 79.733641 26.710764 
L 81.452991 18.056364 
L 83.172342 21.45238 
L 84.891693 26.971808 
L 86.611043 32.86514 
L 88.330394 38.690747 
L 90.049744 44.422575 
L 91.769095 48.980087 
L 93.488445 53.4494 
L 95.207796 57.559405 
L 96.927146 61.309675 
L 98.646497 64.496195 
L 100.365847 67.553166 
L 102.085198 70.105986 
L 103.804548 72.900885 
L 105.523899 75.195802 
L 107.243249 77.424286 
L 108.9626 79.4629 
L 110.68195 81.49712 
L 112.401301 83.287805 
L 114.120652 84.569276 
L 115.840002 86.408222 
L 117.559353 87.875887 
L 119.278703 89.158904 
L 120.998054 90.593514 
L 122.717404 91.718737 
L 124.436755 92.995493 
L 126.156105 93.906127 
L 127.875456 95.239751 
L 129.594806 96.147685 
L 131.314157 97.054355 
L 133.033507 97.959964 
L 134.752858 98.685981 
L 136.472208 99.767206 
L 138.191559 100.368504 
L 139.91091 101.209482 
L 141.63026 101.869677 
L 143.349611 102.520486 
L 145.068961 103.187607 
L 146.788312 104.02507 
L 148.507662 104.383383 
L 150.227013 105.219172 
L 151.946363 105.696342 
L 153.665714 106.232772 
L 155.385064 106.709073 
L 157.104415 107.304091 
L 158.823765 107.839108 
L 160.543116 108.143265 
L 162.262466 108.729478 
L 163.981817 109.262992 
L 165.701167 109.559146 
L 167.420518 109.914486 
L 169.139869 110.328753 
L 170.859219 110.801914 
L 172.57857 111.097311 
L 174.29792 111.628506 
L 176.017271 111.723244 
L 177.736621 112.100203 
L 179.455972 112.571729 
L 181.175322 112.983978 
L 182.894673 113.160511 
L 184.614023 113.337033 
L 186.333374 113.807663 
L 188.052724 114.04281 
L 189.772075 114.336626 
L 191.491425 114.688826 
L 193.210776 114.818891 
L 194.930126 115.216863 
L 196.649477 115.334104 
L 198.368828 115.568584 
L 200.088178 115.861539 
L 201.807529 116.148556 
L 203.526879 116.38851 
L 205.24623 116.505532 
L 206.96558 116.68098 
L 208.684931 117.031784 
L 210.404281 117.323962 
L 212.123632 117.440777 
L 213.842982 117.557584 
L 215.562333 117.849487 
L 217.281683 117.907812 
L 219.001034 118.082857 
L 220.720384 118.43275 
L 222.439735 118.549335 
L 224.159085 118.724145 
L 225.878436 118.957148 
L 227.597787 119.131828 
L 229.317137 119.306458 
L 231.036488 119.306441 
" clip-path="url(#pf41b68d24a)" style="fill: none; stroke: #1f77b4; stroke-width: 1.21; stroke-linecap: square"/>
   </g>
   <g id="line2d_15">
    <path d="M 60.820785 135.14518 
L 62.540136 137.00312 
L 64.259486 142.579406 
L 65.978837 149.994898 
L 67.698187 87.835724 
L 69.417538 68.21271 
L 71.136888 63.550183 
L 72.856239 63.637177 
L 74.575589 70.133239 
L 76.29494 73.235487 
L 78.01429 75.766316 
L 79.733641 74.746629 
L 81.452991 59.869231 
L 83.172342 60.378965 
L 84.891693 63.302065 
L 86.611043 66.969627 
L 88.330394 70.28934 
L 90.049744 73.759186 
L 91.769095 76.524504 
L 93.488445 79.286419 
L 95.207796 81.864855 
L 96.927146 84.23356 
L 98.646497 86.258278 
L 100.365847 88.215313 
L 102.085198 89.861204 
L 103.804548 91.671825 
L 105.523899 93.167749 
L 107.243249 94.627411 
L 108.9626 95.968873 
L 110.68195 97.313933 
L 112.401301 98.503097 
L 114.120652 99.357117 
L 115.840002 100.587117 
L 117.559353 101.572876 
L 119.278703 102.436663 
L 120.998054 103.405509 
L 122.717404 104.16759 
L 124.436755 105.034651 
L 126.156105 105.654692 
L 127.875456 106.564938 
L 129.594806 107.18618 
L 131.314157 107.807955 
L 133.033507 108.429759 
L 134.752858 108.929732 
L 136.472208 109.675586 
L 138.191559 110.090974 
L 139.91091 110.672805 
L 141.63026 111.130633 
L 143.349611 111.582878 
L 145.068961 112.046951 
L 146.788312 112.63049 
L 148.507662 112.88035 
L 150.227013 113.464445 
L 151.946363 113.798366 
L 153.665714 114.174116 
L 155.385064 114.508081 
L 157.104415 114.925773 
L 158.823765 115.301964 
L 160.543116 115.516035 
L 162.262466 115.929172 
L 163.981817 116.3054 
L 165.701167 116.514636 
L 167.420518 116.76557 
L 169.139869 117.058624 
L 170.859219 117.393534 
L 172.57857 117.602911 
L 174.29792 117.979923 
L 176.017271 118.047316 
L 177.736621 118.315154 
L 179.455972 118.650492 
L 181.175322 118.943907 
L 182.894673 119.069681 
L 184.614023 119.195406 
L 186.333374 119.530902 
L 188.052724 119.698643 
L 189.772075 119.908417 
L 191.491425 120.160203 
L 193.210776 120.253196 
L 194.930126 120.537903 
L 196.649477 120.621795 
L 198.368828 120.789708 
L 200.088178 120.999611 
L 201.807529 121.205384 
L 203.526879 121.377538 
L 205.24623 121.461543 
L 206.96558 121.587539 
L 208.684931 121.839599 
L 210.404281 122.049673 
L 212.123632 122.133705 
L 213.842982 122.217742 
L 215.562333 122.427862 
L 217.281683 122.469891 
L 219.001034 122.595962 
L 220.720384 122.848172 
L 222.439735 122.932244 
L 224.159085 123.058368 
L 225.878436 123.226534 
L 227.597787 123.352665 
L 229.317137 123.478818 
L 231.036488 123.478811 
" clip-path="url(#pf41b68d24a)" style="fill: none; stroke: #ff7f0e; stroke-width: 1.21; stroke-linecap: square"/>
   </g>
   <g id="line2d_16">
    <path d="M 60.820785 135.148891 
L 62.540136 136.391298 
L 64.259486 140.164676 
L 65.978837 145.550574 
L 67.698187 101.217889 
L 69.417538 103.463494 
L 71.136888 107.226452 
L 72.856239 93.324586 
L 74.575589 89.872269 
L 76.29494 94.818712 
L 78.01429 95.763327 
L 79.733641 95.720203 
L 81.452991 93.56748 
L 83.172342 86.467891 
L 84.891693 83.539209 
L 86.611043 84.487968 
L 88.330394 86.385222 
L 90.049744 88.741242 
L 91.769095 90.747243 
L 93.488445 92.726026 
L 95.207796 94.580811 
L 96.927146 96.297466 
L 98.646497 97.770922 
L 100.365847 99.203012 
L 102.085198 100.410983 
L 103.804548 101.744842 
L 105.523899 102.848411 
L 107.243249 103.929144 
L 108.9626 104.925076 
L 110.68195 105.926208 
L 112.401301 106.814056 
L 114.120652 107.45232 
L 115.840002 108.373442 
L 117.559353 109.113312 
L 119.278703 109.762394 
L 120.998054 110.492063 
L 122.717404 111.066916 
L 124.436755 111.721976 
L 126.156105 112.190981 
L 127.875456 112.880402 
L 129.594806 113.351655 
L 131.314157 113.823853 
L 133.033507 114.297022 
L 134.752858 114.677377 
L 136.472208 115.245426 
L 138.191559 115.562472 
L 139.91091 116.007146 
L 141.63026 116.357008 
L 143.349611 116.702971 
L 145.068961 117.058177 
L 146.788312 117.505386 
L 148.507662 117.69727 
L 150.227013 118.14559 
L 151.946363 118.402079 
L 153.665714 118.690818 
L 155.385064 118.947706 
L 157.104415 119.269357 
L 158.823765 119.559046 
L 160.543116 119.72404 
L 162.262466 120.042613 
L 163.981817 120.333203 
L 165.701167 120.494698 
L 167.420518 120.688716 
L 169.139869 120.915151 
L 170.859219 121.174199 
L 172.57857 121.336212 
L 174.29792 121.628131 
L 176.017271 121.680347 
L 177.736621 121.88787 
L 179.455972 122.147797 
L 181.175322 122.375447 
L 182.894673 122.472984 
L 184.614023 122.570607 
L 186.333374 122.831059 
L 188.052724 122.961428 
L 189.772075 123.124468 
L 191.491425 123.320223 
L 193.210776 123.392564 
L 194.930126 123.614033 
L 196.649477 123.679315 
L 198.368828 123.810007 
L 200.088178 123.973449 
L 201.807529 124.133786 
L 203.526879 124.267917 
L 205.24623 124.333391 
L 206.96558 124.431643 
L 208.684931 124.628241 
L 210.404281 124.792167 
L 212.123632 124.85773 
L 213.842982 124.923327 
L 215.562333 125.087406 
L 217.281683 125.120232 
L 219.001034 125.21873 
L 220.720384 125.415818 
L 222.439735 125.481531 
L 224.159085 125.58013 
L 225.878436 125.711656 
L 227.597787 125.810316 
L 229.317137 125.909026 
L 231.036488 125.909026 
" clip-path="url(#pf41b68d24a)" style="fill: none; stroke: #2ca02c; stroke-width: 1.21; stroke-linecap: square"/>
   </g>
   <g id="line2d_17">
    <path d="M 60.820785 135.013591 
L 62.540136 135.94743 
L 64.259486 138.80067 
L 65.978837 142.284718 
L 67.698187 123.422868 
L 69.417538 109.179575 
L 71.136888 109.518013 
L 72.856239 102.143773 
L 74.575589 100.613442 
L 76.29494 101.558471 
L 78.01429 99.898419 
L 79.733641 97.823326 
L 81.452991 95.806206 
L 83.172342 97.565035 
L 84.891693 95.892161 
L 86.611043 94.49264 
L 88.330394 96.074729 
L 90.049744 97.861815 
L 91.769095 99.396866 
L 93.488445 100.936556 
L 95.207796 102.388452 
L 96.927146 103.733129 
L 98.646497 104.89257 
L 100.365847 106.019732 
L 102.085198 106.970838 
L 103.804548 108.024309 
L 105.523899 108.898725 
L 107.243249 109.75572 
L 108.9626 110.546909 
L 110.68195 111.343489 
L 112.401301 112.050886 
L 114.120652 112.559521 
L 115.840002 113.295084 
L 117.559353 113.886622 
L 119.278703 114.406348 
L 120.998054 114.990986 
L 122.717404 115.451864 
L 124.436755 115.97776 
L 126.156105 116.354661 
L 127.875456 116.908635 
L 129.594806 117.288047 
L 131.314157 117.66848 
L 133.033507 118.049833 
L 134.752858 118.356879 
L 136.472208 118.815442 
L 138.191559 119.07156 
L 139.91091 119.430855 
L 141.63026 119.7139 
L 143.349611 119.993775 
L 145.068961 120.28142 
L 146.788312 120.643719 
L 148.507662 120.799053 
L 150.227013 121.162671 
L 151.946363 121.370837 
L 153.665714 121.605317 
L 155.385064 121.813991 
L 157.104415 122.075351 
L 158.823765 122.310949 
L 160.543116 122.445039 
L 162.262466 122.704237 
L 163.981817 122.940679 
L 165.701167 123.072241 
L 167.420518 123.230082 
L 169.139869 123.414571 
L 170.859219 123.625684 
L 172.57857 123.757746 
L 174.29792 123.995797 
L 176.017271 124.038316 
L 177.736621 124.207615 
L 179.455972 124.419821 
L 181.175322 124.605708 
L 182.894673 124.685402 
L 184.614023 124.765161 
L 186.333374 124.978032 
L 188.052724 125.084534 
L 189.772075 125.217826 
L 191.491425 125.377909 
L 193.210776 125.437049 
L 194.930126 125.618294 
L 196.649477 125.671736 
L 198.368828 125.778723 
L 200.088178 125.912565 
L 201.807529 126.043864 
L 203.526879 126.153753 
L 205.24623 126.20739 
L 206.96558 126.28789 
L 208.684931 126.448994 
L 210.404281 126.583361 
L 212.123632 126.637141 
L 213.842982 126.69092 
L 215.562333 126.825484 
L 217.281683 126.85241 
L 219.001034 126.933211 
L 220.720384 127.094926 
L 222.439735 127.148855 
L 224.159085 127.229776 
L 225.878436 127.337753 
L 227.597787 127.41877 
L 229.317137 127.499833 
L 231.036488 127.499815 
" clip-path="url(#pf41b68d24a)" style="fill: none; stroke: #d62728; stroke-width: 1.21; stroke-linecap: square"/>
   </g>
   <g id="line2d_18">
    <path d="M 60.820785 135.142893 
L 62.540136 135.890193 
L 64.259486 138.181744 
L 65.978837 141.51773 
L 67.698187 110.18713 
L 69.417538 108.932793 
L 71.136888 110.761292 
L 72.856239 106.743625 
L 74.575589 108.187142 
L 76.29494 109.666776 
L 78.01429 109.800109 
L 79.733641 101.498767 
L 81.452991 98.274595 
L 83.172342 98.304691 
L 84.891693 99.869775 
L 86.611043 101.239031 
L 88.330394 102.565444 
L 90.049744 104.037841 
L 91.769095 105.227628 
L 93.488445 106.488228 
L 95.207796 107.670746 
L 96.927146 108.777481 
L 98.646497 109.729937 
L 100.365847 110.658208 
L 102.085198 111.442907 
L 103.804548 112.313584 
L 105.523899 113.036815 
L 107.243249 113.746547 
L 108.9626 114.402423 
L 110.68195 115.063048 
L 112.401301 115.650508 
L 114.120652 116.073599 
L 115.840002 116.685458 
L 117.559353 117.177794 
L 119.278703 117.610802 
L 120.998054 118.098241 
L 122.717404 118.482894 
L 124.436755 118.921997 
L 126.156105 119.23681 
L 127.875456 119.700374 
L 129.594806 120.017727 
L 131.314157 120.336127 
L 133.033507 120.655506 
L 134.752858 120.912737 
L 136.472208 121.297386 
L 138.191559 121.512225 
L 139.91091 121.813787 
L 141.63026 122.051111 
L 143.349611 122.286205 
L 145.068961 122.527862 
L 146.788312 122.83238 
L 148.507662 122.963073 
L 150.227013 123.268845 
L 151.946363 123.443927 
L 153.665714 123.641227 
L 155.385064 123.816887 
L 157.104415 124.036934 
L 158.823765 124.235355 
L 160.543116 124.348428 
L 162.262466 124.566885 
L 163.981817 124.766283 
L 165.701167 124.877171 
L 167.420518 125.010361 
L 169.139869 125.165972 
L 170.859219 125.344149 
L 172.57857 125.455598 
L 174.29792 125.656571 
L 176.017271 125.692509 
L 177.736621 125.835475 
L 179.455972 126.014692 
L 181.175322 126.171742 
L 182.894673 126.239066 
L 184.614023 126.306481 
L 186.333374 126.486447 
L 188.052724 126.576517 
L 189.772075 126.689204 
L 191.491425 126.824589 
L 193.210776 126.874631 
L 194.930126 127.027962 
L 196.649477 127.073192 
L 198.368828 127.163705 
L 200.088178 127.276986 
L 201.807529 127.388134 
L 203.526879 127.481165 
L 205.24623 127.526593 
L 206.96558 127.59473 
L 208.684931 127.73119 
L 210.404281 127.845012 
L 212.123632 127.890572 
L 213.842982 127.936158 
L 215.562333 128.050198 
L 217.281683 128.073019 
L 219.001034 128.141508 
L 220.720384 128.278606 
L 222.439735 128.324332 
L 224.159085 128.392958 
L 225.878436 128.484531 
L 227.597787 128.553241 
L 229.317137 128.622006 
L 231.036488 128.622006 
" clip-path="url(#pf41b68d24a)" style="fill: none; stroke: #9467bd; stroke-width: 1.21; stroke-linecap: square"/>
   </g>
   <g id="patch_3">
    <path d="M 52.31 170.44 
L 52.31 10.8 
" style="fill: none; stroke: #000000; stroke-width: 0.8; stroke-linejoin: miter; stroke-linecap: square"/>
   </g>
   <g id="patch_4">
    <path d="M 239.547273 170.44 
L 239.547273 10.8 
" style="fill: none; stroke: #000000; stroke-width: 0.8; stroke-linejoin: miter; stroke-linecap: square"/>
   </g>
   <g id="patch_5">
    <path d="M 52.31 170.44 
L 239.547273 170.44 
" style="fill: none; stroke: #000000; stroke-width: 0.8; stroke-linejoin: miter; stroke-linecap: square"/>
   </g>
   <g id="patch_6">
    <path d="M 52.31 10.8 
L 239.547273 10.8 
" style="fill: none; stroke: #000000; stroke-width: 0.8; stroke-linejoin: miter; stroke-linecap: square"/>
   </g>
   <g id="legend_1">
    <g id="line2d_19">
     <path d="M 187.350273 24.897 
L 200.050273 24.897 
L 212.750273 24.897 
" style="fill: none; stroke: #9467bd; stroke-width: 1.21; stroke-linecap: square"/>
    </g>
    <g id="text_16">
     <!-- $\mathrm{f}_{c_5}$ -->
     <g transform="translate(216.560273 29.342) scale(0.127 -0.127)">
      <defs>
       <path id="DejaVuSans-66" d="M 2375 4863 
L 2375 4384 
L 1825 4384 
Q 1516 4384 1395 4259 
Q 1275 4134 1275 3809 
L 1275 3500 
L 2222 3500 
L 2222 3053 
L 1275 3053 
L 1275 0 
L 697 0 
L 697 3053 
L 147 3053 
L 147 3500 
L 697 3500 
L 697 3744 
Q 697 4328 969 4595 
Q 1241 4863 1831 4863 
L 2375 4863 
z
" transform="scale(0.015625)"/>
       <path id="DejaVuSans-Oblique-63" d="M 3431 3366 
L 3316 2797 
Q 3109 2947 2876 3022 
Q 2644 3097 2394 3097 
Q 2119 3097 1870 3000 
Q 1622 2903 1453 2725 
Q 1184 2453 1037 2087 
Q 891 1722 891 1331 
Q 891 859 1127 628 
Q 1363 397 1844 397 
Q 2081 397 2348 469 
Q 2616 541 2906 684 
L 2797 116 
Q 2547 13 2283 -39 
Q 2019 -91 1741 -91 
Q 1044 -91 669 257 
Q 294 606 294 1253 
Q 294 1797 489 2255 
Q 684 2713 1069 3078 
Q 1331 3328 1684 3456 
Q 2038 3584 2456 3584 
Q 2700 3584 2940 3529 
Q 3181 3475 3431 3366 
z
" transform="scale(0.015625)"/>
       <path id="DejaVuSans-35" d="M 691 4666 
L 3169 4666 
L 3169 4134 
L 1269 4134 
L 1269 2991 
Q 1406 3038 1543 3061 
Q 1681 3084 1819 3084 
Q 2600 3084 3056 2656 
Q 3513 2228 3513 1497 
Q 3513 744 3044 326 
Q 2575 -91 1722 -91 
Q 1428 -91 1123 -41 
Q 819 9 494 109 
L 494 744 
Q 775 591 1075 516 
Q 1375 441 1709 441 
Q 2250 441 2565 725 
Q 2881 1009 2881 1497 
Q 2881 1984 2565 2268 
Q 2250 2553 1709 2553 
Q 1456 2553 1204 2497 
Q 953 2441 691 2322 
L 691 4666 
z
" transform="scale(0.015625)"/>
      </defs>
      <use xlink:href="#DejaVuSans-66" transform="translate(0 0.015625)"/>
      <use xlink:href="#DejaVuSans-Oblique-63" transform="translate(36.162109 -16.390625) scale(0.7)"/>
      <use xlink:href="#DejaVuSans-35" transform="translate(74.648438 -27.875) scale(0.49)"/>
     </g>
    </g>
    <g id="line2d_20">
     <path d="M 187.350273 41.407 
L 200.050273 41.407 
L 212.750273 41.407 
" style="fill: none; stroke: #d62728; stroke-width: 1.21; stroke-linecap: square"/>
    </g>
    <g id="text_17">
     <!-- $\mathrm{f}_{c_4}$ -->
     <g transform="translate(216.560273 45.852) scale(0.127 -0.127)">
      <defs>
       <path id="DejaVuSans-34" d="M 2419 4116 
L 825 1625 
L 2419 1625 
L 2419 4116 
z
M 2253 4666 
L 3047 4666 
L 3047 1625 
L 3713 1625 
L 3713 1100 
L 3047 1100 
L 3047 0 
L 2419 0 
L 2419 1100 
L 313 1100 
L 313 1709 
L 2253 4666 
z
" transform="scale(0.015625)"/>
      </defs>
      <use xlink:href="#DejaVuSans-66" transform="translate(0 0.015625)"/>
      <use xlink:href="#DejaVuSans-Oblique-63" transform="translate(36.162109 -16.390625) scale(0.7)"/>
      <use xlink:href="#DejaVuSans-34" transform="translate(74.648438 -27.875) scale(0.49)"/>
     </g>
    </g>
    <g id="line2d_21">
     <path d="M 187.350273 57.79 
L 200.050273 57.79 
L 212.750273 57.79 
" style="fill: none; stroke: #2ca02c; stroke-width: 1.21; stroke-linecap: square"/>
    </g>
    <g id="text_18">
     <!-- $\mathrm{f}_{c_3}$ -->
     <g transform="translate(216.560273 62.235) scale(0.127 -0.127)">
      <defs>
       <path id="DejaVuSans-33" d="M 2597 2516 
Q 3050 2419 3304 2112 
Q 3559 1806 3559 1356 
Q 3559 666 3084 287 
Q 2609 -91 1734 -91 
Q 1441 -91 1130 -33 
Q 819 25 488 141 
L 488 750 
Q 750 597 1062 519 
Q 1375 441 1716 441 
Q 2309 441 2620 675 
Q 2931 909 2931 1356 
Q 2931 1769 2642 2001 
Q 2353 2234 1838 2234 
L 1294 2234 
L 1294 2753 
L 1863 2753 
Q 2328 2753 2575 2939 
Q 2822 3125 2822 3475 
Q 2822 3834 2567 4026 
Q 2313 4219 1838 4219 
Q 1578 4219 1281 4162 
Q 984 4106 628 3988 
L 628 4550 
Q 988 4650 1302 4700 
Q 1616 4750 1894 4750 
Q 2613 4750 3031 4423 
Q 3450 4097 3450 3541 
Q 3450 3153 3228 2886 
Q 3006 2619 2597 2516 
z
" transform="scale(0.015625)"/>
      </defs>
      <use xlink:href="#DejaVuSans-66" transform="translate(0 0.015625)"/>
      <use xlink:href="#DejaVuSans-Oblique-63" transform="translate(36.162109 -16.390625) scale(0.7)"/>
      <use xlink:href="#DejaVuSans-33" transform="translate(74.648438 -27.875) scale(0.49)"/>
     </g>
    </g>
    <g id="line2d_22">
     <path d="M 187.350273 74.3 
L 200.050273 74.3 
L 212.750273 74.3 
" style="fill: none; stroke: #ff7f0e; stroke-width: 1.21; stroke-linecap: square"/>
    </g>
    <g id="text_19">
     <!-- $\mathrm{f}_{c_2}$ -->
     <g transform="translate(216.560273 78.745) scale(0.127 -0.127)">
      <defs>
       <path id="DejaVuSans-32" d="M 1228 531 
L 3431 531 
L 3431 0 
L 469 0 
L 469 531 
Q 828 903 1448 1529 
Q 2069 2156 2228 2338 
Q 2531 2678 2651 2914 
Q 2772 3150 2772 3378 
Q 2772 3750 2511 3984 
Q 2250 4219 1831 4219 
Q 1534 4219 1204 4116 
Q 875 4013 500 3803 
L 500 4441 
Q 881 4594 1212 4672 
Q 1544 4750 1819 4750 
Q 2544 4750 2975 4387 
Q 3406 4025 3406 3419 
Q 3406 3131 3298 2873 
Q 3191 2616 2906 2266 
Q 2828 2175 2409 1742 
Q 1991 1309 1228 531 
z
" transform="scale(0.015625)"/>
      </defs>
      <use xlink:href="#DejaVuSans-66" transform="translate(0 0.015625)"/>
      <use xlink:href="#DejaVuSans-Oblique-63" transform="translate(36.162109 -16.390625) scale(0.7)"/>
      <use xlink:href="#DejaVuSans-32" transform="translate(74.648438 -27.875) scale(0.49)"/>
     </g>
    </g>
    <g id="line2d_23">
     <path d="M 187.350273 90.683 
L 200.050273 90.683 
L 212.750273 90.683 
" style="fill: none; stroke: #1f77b4; stroke-width: 1.21; stroke-linecap: square"/>
    </g>
    <g id="text_20">
     <!-- $\mathrm{f}_{c_1}$ -->
     <g transform="translate(216.560273 95.128) scale(0.127 -0.127)">
      <defs>
       <path id="DejaVuSans-31" d="M 794 531 
L 1825 531 
L 1825 4091 
L 703 3866 
L 703 4441 
L 1819 4666 
L 2450 4666 
L 2450 531 
L 3481 531 
L 3481 0 
L 794 0 
L 794 531 
z
" transform="scale(0.015625)"/>
      </defs>
      <use xlink:href="#DejaVuSans-66" transform="translate(0 0.015625)"/>
      <use xlink:href="#DejaVuSans-Oblique-63" transform="translate(36.162109 -16.390625) scale(0.7)"/>
      <use xlink:href="#DejaVuSans-31" transform="translate(74.648438 -27.875) scale(0.49)"/>
     </g>
    </g>
   </g>
  </g>
 </g>
 <defs>
  <clipPath id="pf41b68d24a">
   <rect x="52.31" y="10.8" width="187.237273" height="159.64"/>
  </clipPath>
 </defs>
</svg>
