<?xml version="1.0" encoding="utf-8" standalone="no"?>
<!DOCTYPE svg PUBLIC "-//W3C//DTD SVG 1.1//EN"
  "http://www.w3.org/Graphics/SVG/1.1/DTD/svg11.dtd">
<svg xmlns:xlink="http://www.w3.org/1999/xlink" width="252pt" height="216pt" viewBox="0 0 252 216" xmlns="http://www.w3.org/2000/svg" version="1.1">
 <metadata>
  <rdf:RDF xmlns:dc="http://purl.org/dc/elements/1.1/" xmlns:cc="http://creativecommons.org/ns#" xmlns:rdf="http://www.w3.org/1999/02/22-rdf-syntax-ns#">
   <cc:Work>
    <dc:type rdf:resource="http://purl.org/dc/dcmitype/StillImage"/>
    <dc:date>2025-07-29T07:35:50.746527</dc:date>
    <dc:format>image/svg+xml</dc:format>
    <dc:creator>
     <cc:Agent>
      <dc:title>Matplotlib v3.9.2, https://matplotlib.org/</dc:title>
     </cc:Agent>
    </dc:creator>
   </cc:Work>
  </rdf:RDF>
 </metadata>
 <defs>
  <style type="text/css">*{stroke-linejoin: round; stroke-linecap: butt}</style>
 </defs>
 <g id="figure_1">
  <g id="patch_1">
   <path d="M 0 216 
L 252 216 
L 252 0 
L 0 0 
z
" style="fill: #ffffff"/>
  </g>
  <g id="axes_1">
   <g id="patch_2">
    <path d="M 31.5 192.24 
L 226.8 192.24 
L 226.8 25.92 
L 31.5 25.92 
z
" style="fill: #ffffff"/>
   </g>
   <g id="matplotlib.axis_1">
    <g id="xtick_1">
     <g id="line2d_1">
      <defs>
       <path id="m236f6709f2" d="M 0 0 
L 0 3.5 
" style="stroke: #000000; stroke-width: 0.8"/>
      </defs>
      <g>
       <use xlink:href="#m236f6709f2" x="38.583884" y="192.24" style="stroke: #000000; stroke-width: 0.8"/>
      </g>
     </g>
     <g id="text_1">
      <!-- 0 -->
      <g transform="translate(33.662455 211.909328) scale(0.177 -0.177)">
       <defs>
        <path id="ArialMT-30" d="M 266 2259 
Q 266 3072 433 3567 
Q 600 4063 929 4331 
Q 1259 4600 1759 4600 
Q 2128 4600 2406 4451 
Q 2684 4303 2865 4023 
Q 3047 3744 3150 3342 
Q 3253 2941 3253 2259 
Q 3253 1453 3087 958 
Q 2922 463 2592 192 
Q 2263 -78 1759 -78 
Q 1097 -78 719 397 
Q 266 969 266 2259 
z
M 844 2259 
Q 844 1131 1108 757 
Q 1372 384 1759 384 
Q 2147 384 2411 759 
Q 2675 1134 2675 2259 
Q 2675 3391 2411 3762 
Q 2147 4134 1753 4134 
Q 1366 4134 1134 3806 
Q 844 3388 844 2259 
z
" transform="scale(0.015625)"/>
       </defs>
       <use xlink:href="#ArialMT-30"/>
      </g>
     </g>
    </g>
    <g id="xtick_2">
     <g id="line2d_2">
      <g>
       <use xlink:href="#m236f6709f2" x="74.451653" y="192.24" style="stroke: #000000; stroke-width: 0.8"/>
      </g>
     </g>
     <g id="text_2">
      <!-- 20 -->
      <g transform="translate(64.608794 211.909328) scale(0.177 -0.177)">
       <defs>
        <path id="ArialMT-32" d="M 3222 541 
L 3222 0 
L 194 0 
Q 188 203 259 391 
Q 375 700 629 1000 
Q 884 1300 1366 1694 
Q 2113 2306 2375 2664 
Q 2638 3022 2638 3341 
Q 2638 3675 2398 3904 
Q 2159 4134 1775 4134 
Q 1369 4134 1125 3890 
Q 881 3647 878 3216 
L 300 3275 
Q 359 3922 746 4261 
Q 1134 4600 1788 4600 
Q 2447 4600 2831 4234 
Q 3216 3869 3216 3328 
Q 3216 3053 3103 2787 
Q 2991 2522 2730 2228 
Q 2469 1934 1863 1422 
Q 1356 997 1212 845 
Q 1069 694 975 541 
L 3222 541 
z
" transform="scale(0.015625)"/>
       </defs>
       <use xlink:href="#ArialMT-32"/>
       <use xlink:href="#ArialMT-30" x="55.615234"/>
      </g>
     </g>
    </g>
    <g id="xtick_3">
     <g id="line2d_3">
      <g>
       <use xlink:href="#m236f6709f2" x="110.319421" y="192.24" style="stroke: #000000; stroke-width: 0.8"/>
      </g>
     </g>
     <g id="text_3">
      <!-- 40 -->
      <g transform="translate(100.476562 211.909328) scale(0.177 -0.177)">
       <defs>
        <path id="ArialMT-34" d="M 2069 0 
L 2069 1097 
L 81 1097 
L 81 1613 
L 2172 4581 
L 2631 4581 
L 2631 1613 
L 3250 1613 
L 3250 1097 
L 2631 1097 
L 2631 0 
L 2069 0 
z
M 2069 1613 
L 2069 3678 
L 634 1613 
L 2069 1613 
z
" transform="scale(0.015625)"/>
       </defs>
       <use xlink:href="#ArialMT-34"/>
       <use xlink:href="#ArialMT-30" x="55.615234"/>
      </g>
     </g>
    </g>
    <g id="xtick_4">
     <g id="line2d_4">
      <g>
       <use xlink:href="#m236f6709f2" x="146.18719" y="192.24" style="stroke: #000000; stroke-width: 0.8"/>
      </g>
     </g>
     <g id="text_4">
      <!-- 60 -->
      <g transform="translate(136.344331 211.909328) scale(0.177 -0.177)">
       <defs>
        <path id="ArialMT-36" d="M 3184 3459 
L 2625 3416 
Q 2550 3747 2413 3897 
Q 2184 4138 1850 4138 
Q 1581 4138 1378 3988 
Q 1113 3794 959 3422 
Q 806 3050 800 2363 
Q 1003 2672 1297 2822 
Q 1591 2972 1913 2972 
Q 2475 2972 2870 2558 
Q 3266 2144 3266 1488 
Q 3266 1056 3080 686 
Q 2894 316 2569 119 
Q 2244 -78 1831 -78 
Q 1128 -78 684 439 
Q 241 956 241 2144 
Q 241 3472 731 4075 
Q 1159 4600 1884 4600 
Q 2425 4600 2770 4297 
Q 3116 3994 3184 3459 
z
M 888 1484 
Q 888 1194 1011 928 
Q 1134 663 1356 523 
Q 1578 384 1822 384 
Q 2178 384 2434 671 
Q 2691 959 2691 1453 
Q 2691 1928 2437 2201 
Q 2184 2475 1800 2475 
Q 1419 2475 1153 2201 
Q 888 1928 888 1484 
z
" transform="scale(0.015625)"/>
       </defs>
       <use xlink:href="#ArialMT-36"/>
       <use xlink:href="#ArialMT-30" x="55.615234"/>
      </g>
     </g>
    </g>
    <g id="xtick_5">
     <g id="line2d_5">
      <g>
       <use xlink:href="#m236f6709f2" x="182.054959" y="192.24" style="stroke: #000000; stroke-width: 0.8"/>
      </g>
     </g>
     <g id="text_5">
      <!-- 80 -->
      <g transform="translate(172.212099 211.909328) scale(0.177 -0.177)">
       <defs>
        <path id="ArialMT-38" d="M 1131 2484 
Q 781 2613 612 2850 
Q 444 3088 444 3419 
Q 444 3919 803 4259 
Q 1163 4600 1759 4600 
Q 2359 4600 2725 4251 
Q 3091 3903 3091 3403 
Q 3091 3084 2923 2848 
Q 2756 2613 2416 2484 
Q 2838 2347 3058 2040 
Q 3278 1734 3278 1309 
Q 3278 722 2862 322 
Q 2447 -78 1769 -78 
Q 1091 -78 675 323 
Q 259 725 259 1325 
Q 259 1772 486 2073 
Q 713 2375 1131 2484 
z
M 1019 3438 
Q 1019 3113 1228 2906 
Q 1438 2700 1772 2700 
Q 2097 2700 2305 2904 
Q 2513 3109 2513 3406 
Q 2513 3716 2298 3927 
Q 2084 4138 1766 4138 
Q 1444 4138 1231 3931 
Q 1019 3725 1019 3438 
z
M 838 1322 
Q 838 1081 952 856 
Q 1066 631 1291 507 
Q 1516 384 1775 384 
Q 2178 384 2440 643 
Q 2703 903 2703 1303 
Q 2703 1709 2433 1975 
Q 2163 2241 1756 2241 
Q 1359 2241 1098 1978 
Q 838 1716 838 1322 
z
" transform="scale(0.015625)"/>
       </defs>
       <use xlink:href="#ArialMT-38"/>
       <use xlink:href="#ArialMT-30" x="55.615234"/>
      </g>
     </g>
    </g>
    <g id="xtick_6">
     <g id="line2d_6">
      <g>
       <use xlink:href="#m236f6709f2" x="217.922727" y="192.24" style="stroke: #000000; stroke-width: 0.8"/>
      </g>
     </g>
     <g id="text_6">
      <!-- 100 -->
      <g transform="translate(203.158438 211.909328) scale(0.177 -0.177)">
       <defs>
        <path id="ArialMT-31" d="M 2384 0 
L 1822 0 
L 1822 3584 
Q 1619 3391 1289 3197 
Q 959 3003 697 2906 
L 697 3450 
Q 1169 3672 1522 3987 
Q 1875 4303 2022 4600 
L 2384 4600 
L 2384 0 
z
" transform="scale(0.015625)"/>
       </defs>
       <use xlink:href="#ArialMT-31"/>
       <use xlink:href="#ArialMT-30" x="55.615234"/>
       <use xlink:href="#ArialMT-30" x="111.230469"/>
      </g>
     </g>
    </g>
    <g id="text_7">
     <!-- $n$ -->
     <g transform="translate(123.39 232.311266) scale(0.18 -0.18)">
      <defs>
       <path id="DejaVuSans-Oblique-6e" d="M 3566 2113 
L 3156 0 
L 2578 0 
L 2988 2091 
Q 3016 2238 3031 2350 
Q 3047 2463 3047 2528 
Q 3047 2791 2881 2937 
Q 2716 3084 2419 3084 
Q 1956 3084 1622 2776 
Q 1288 2469 1184 1941 
L 800 0 
L 225 0 
L 903 3500 
L 1478 3500 
L 1363 2950 
Q 1603 3253 1940 3418 
Q 2278 3584 2650 3584 
Q 3113 3584 3367 3334 
Q 3622 3084 3622 2631 
Q 3622 2519 3608 2391 
Q 3594 2263 3566 2113 
z
" transform="scale(0.015625)"/>
      </defs>
      <use xlink:href="#DejaVuSans-Oblique-6e"/>
     </g>
    </g>
   </g>
   <g id="matplotlib.axis_2">
    <g id="ytick_1">
     <g id="line2d_7">
      <defs>
       <path id="m1ab45ad312" d="M 0 0 
L -3.5 0 
" style="stroke: #000000; stroke-width: 0.8"/>
      </defs>
      <g>
       <use xlink:href="#m1ab45ad312" x="31.5" y="189.165475" style="stroke: #000000; stroke-width: 0.8"/>
      </g>
     </g>
     <g id="text_8">
      <!-- 0.8 -->
      <g transform="translate(-0.103 195.500139) scale(0.177 -0.177)">
       <defs>
        <path id="ArialMT-2e" d="M 581 0 
L 581 641 
L 1222 641 
L 1222 0 
L 581 0 
z
" transform="scale(0.015625)"/>
       </defs>
       <use xlink:href="#ArialMT-30"/>
       <use xlink:href="#ArialMT-2e" x="55.615234"/>
       <use xlink:href="#ArialMT-38" x="83.398438"/>
      </g>
     </g>
    </g>
    <g id="ytick_2">
     <g id="line2d_8">
      <g>
       <use xlink:href="#m1ab45ad312" x="31.5" y="162.58686" style="stroke: #000000; stroke-width: 0.8"/>
      </g>
     </g>
     <g id="text_9">
      <!-- 0.9 -->
      <g transform="translate(-0.103 168.921524) scale(0.177 -0.177)">
       <defs>
        <path id="ArialMT-39" d="M 350 1059 
L 891 1109 
Q 959 728 1153 556 
Q 1347 384 1650 384 
Q 1909 384 2104 503 
Q 2300 622 2425 820 
Q 2550 1019 2634 1356 
Q 2719 1694 2719 2044 
Q 2719 2081 2716 2156 
Q 2547 1888 2255 1720 
Q 1963 1553 1622 1553 
Q 1053 1553 659 1965 
Q 266 2378 266 3053 
Q 266 3750 677 4175 
Q 1088 4600 1706 4600 
Q 2153 4600 2523 4359 
Q 2894 4119 3086 3673 
Q 3278 3228 3278 2384 
Q 3278 1506 3087 986 
Q 2897 466 2520 194 
Q 2144 -78 1638 -78 
Q 1100 -78 759 220 
Q 419 519 350 1059 
z
M 2653 3081 
Q 2653 3566 2395 3850 
Q 2138 4134 1775 4134 
Q 1400 4134 1122 3828 
Q 844 3522 844 3034 
Q 844 2597 1108 2323 
Q 1372 2050 1759 2050 
Q 2150 2050 2401 2323 
Q 2653 2597 2653 3081 
z
" transform="scale(0.015625)"/>
       </defs>
       <use xlink:href="#ArialMT-30"/>
       <use xlink:href="#ArialMT-2e" x="55.615234"/>
       <use xlink:href="#ArialMT-39" x="83.398438"/>
      </g>
     </g>
    </g>
    <g id="ytick_3">
     <g id="line2d_9">
      <g>
       <use xlink:href="#m1ab45ad312" x="31.5" y="136.008246" style="stroke: #000000; stroke-width: 0.8"/>
      </g>
     </g>
     <g id="text_10">
      <!-- 1.0 -->
      <g transform="translate(-0.103 142.34291) scale(0.177 -0.177)">
       <use xlink:href="#ArialMT-31"/>
       <use xlink:href="#ArialMT-2e" x="55.615234"/>
       <use xlink:href="#ArialMT-30" x="83.398438"/>
      </g>
     </g>
    </g>
    <g id="ytick_4">
     <g id="line2d_10">
      <g>
       <use xlink:href="#m1ab45ad312" x="31.5" y="109.429632" style="stroke: #000000; stroke-width: 0.8"/>
      </g>
     </g>
     <g id="text_11">
      <!-- 1.1 -->
      <g transform="translate(-0.103 115.764296) scale(0.177 -0.177)">
       <use xlink:href="#ArialMT-31"/>
       <use xlink:href="#ArialMT-2e" x="55.615234"/>
       <use xlink:href="#ArialMT-31" x="83.398438"/>
      </g>
     </g>
    </g>
    <g id="ytick_5">
     <g id="line2d_11">
      <g>
       <use xlink:href="#m1ab45ad312" x="31.5" y="82.851017" style="stroke: #000000; stroke-width: 0.8"/>
      </g>
     </g>
     <g id="text_12">
      <!-- 1.2 -->
      <g transform="translate(-0.103 89.185681) scale(0.177 -0.177)">
       <use xlink:href="#ArialMT-31"/>
       <use xlink:href="#ArialMT-2e" x="55.615234"/>
       <use xlink:href="#ArialMT-32" x="83.398438"/>
      </g>
     </g>
    </g>
    <g id="ytick_6">
     <g id="line2d_12">
      <g>
       <use xlink:href="#m1ab45ad312" x="31.5" y="56.272403" style="stroke: #000000; stroke-width: 0.8"/>
      </g>
     </g>
     <g id="text_13">
      <!-- 1.3 -->
      <g transform="translate(-0.103 62.607067) scale(0.177 -0.177)">
       <defs>
        <path id="ArialMT-33" d="M 269 1209 
L 831 1284 
Q 928 806 1161 595 
Q 1394 384 1728 384 
Q 2125 384 2398 659 
Q 2672 934 2672 1341 
Q 2672 1728 2419 1979 
Q 2166 2231 1775 2231 
Q 1616 2231 1378 2169 
L 1441 2663 
Q 1497 2656 1531 2656 
Q 1891 2656 2178 2843 
Q 2466 3031 2466 3422 
Q 2466 3731 2256 3934 
Q 2047 4138 1716 4138 
Q 1388 4138 1169 3931 
Q 950 3725 888 3313 
L 325 3413 
Q 428 3978 793 4289 
Q 1159 4600 1703 4600 
Q 2078 4600 2393 4439 
Q 2709 4278 2876 4000 
Q 3044 3722 3044 3409 
Q 3044 3113 2884 2869 
Q 2725 2625 2413 2481 
Q 2819 2388 3044 2092 
Q 3269 1797 3269 1353 
Q 3269 753 2831 336 
Q 2394 -81 1725 -81 
Q 1122 -81 723 278 
Q 325 638 269 1209 
z
" transform="scale(0.015625)"/>
       </defs>
       <use xlink:href="#ArialMT-31"/>
       <use xlink:href="#ArialMT-2e" x="55.615234"/>
       <use xlink:href="#ArialMT-33" x="83.398438"/>
      </g>
     </g>
    </g>
    <g id="ytick_7">
     <g id="line2d_13">
      <g>
       <use xlink:href="#m1ab45ad312" x="31.5" y="29.693789" style="stroke: #000000; stroke-width: 0.8"/>
      </g>
     </g>
     <g id="text_14">
      <!-- 1.4 -->
      <g transform="translate(-0.103 36.028453) scale(0.177 -0.177)">
       <use xlink:href="#ArialMT-31"/>
       <use xlink:href="#ArialMT-2e" x="55.615234"/>
       <use xlink:href="#ArialMT-34" x="83.398438"/>
      </g>
     </g>
    </g>
    <g id="text_15">
     <!-- $EF$ -->
     <g transform="translate(-7.6805 119.97) rotate(-90) scale(0.18 -0.18)">
      <defs>
       <path id="DejaVuSans-Oblique-45" d="M 1081 4666 
L 4031 4666 
L 3928 4134 
L 1606 4134 
L 1338 2753 
L 3566 2753 
L 3463 2222 
L 1234 2222 
L 909 531 
L 3284 531 
L 3181 0 
L 172 0 
L 1081 4666 
z
" transform="scale(0.015625)"/>
       <path id="DejaVuSans-Oblique-46" d="M 1081 4666 
L 3756 4666 
L 3653 4134 
L 1606 4134 
L 1338 2759 
L 3188 2759 
L 3084 2228 
L 1234 2228 
L 800 0 
L 172 0 
L 1081 4666 
z
" transform="scale(0.015625)"/>
      </defs>
      <use xlink:href="#DejaVuSans-Oblique-45" transform="translate(0 0.09375)"/>
      <use xlink:href="#DejaVuSans-Oblique-46" transform="translate(63.183594 0.09375)"/>
     </g>
    </g>
   </g>
   <g id="line2d_14">
    <path d="M 40.377273 135.058932 
L 42.170661 154.633038 
L 43.96405 173.171903 
L 45.757438 184.68 
L 47.550826 130.244648 
L 49.344215 86.43339 
L 51.137603 77.106382 
L 52.930992 83.144711 
L 54.72438 81.966315 
L 56.517769 85.234953 
L 58.311157 87.021555 
L 60.104545 89.35259 
L 61.897934 92.430939 
L 63.691322 95.382923 
L 65.484711 97.959306 
L 67.278099 100.153541 
L 69.071488 102.094126 
L 70.864876 104.003226 
L 72.658264 105.523366 
L 74.451653 107.011031 
L 76.245041 108.389145 
L 78.03843 109.646533 
L 79.831818 110.720574 
L 81.625207 111.754347 
L 83.418595 112.620489 
L 85.211983 113.57203 
L 87.005372 114.354673 
L 88.79876 115.117496 
L 90.592149 115.817695 
L 92.385537 116.518666 
L 94.178926 117.138568 
L 95.972314 117.582756 
L 97.765702 118.221885 
L 99.559091 118.733522 
L 101.352479 119.181482 
L 103.145868 119.683407 
L 104.939256 120.078097 
L 106.732645 120.526962 
L 108.526033 120.847691 
L 110.319421 121.318317 
L 112.11281 121.639336 
L 113.906198 121.960479 
L 115.699587 122.281531 
L 117.492975 122.539645 
L 119.286364 122.924532 
L 121.079752 123.138886 
L 122.87314 123.439107 
L 124.666529 123.675138 
L 126.459917 123.908233 
L 128.253306 124.147313 
L 130.046694 124.447965 
L 131.840083 124.576847 
L 133.633471 124.87758 
L 135.42686 125.049476 
L 137.220248 125.242901 
L 139.013636 125.414865 
L 140.807025 125.629872 
L 142.600413 125.823447 
L 144.393802 125.933548 
L 146.18719 126.146084 
L 147.980579 126.339748 
L 149.773967 126.447364 
L 151.567355 126.57652 
L 153.360744 126.727193 
L 155.154132 126.899453 
L 156.947521 127.007116 
L 158.740909 127.200951 
L 160.534298 127.235592 
L 162.327686 127.373264 
L 164.121074 127.545636 
L 165.914463 127.696486 
L 167.707851 127.761142 
L 169.50124 127.825803 
L 171.294628 127.998252 
L 173.088017 128.084473 
L 174.881405 128.192263 
L 176.674793 128.321643 
L 178.468182 128.369442 
L 180.26157 128.515743 
L 182.054959 128.558882 
L 183.848347 128.645149 
L 185.641736 128.752997 
L 187.435124 128.858731 
L 189.228512 128.947177 
L 191.021901 128.990333 
L 192.815289 129.05507 
L 194.608678 129.184557 
L 196.402066 129.292474 
L 198.195455 129.335644 
L 199.988843 129.378816 
L 201.782231 129.486753 
L 203.57562 129.508341 
L 205.369008 129.57311 
L 207.162397 129.702659 
L 208.955785 129.745845 
L 210.749174 129.810628 
L 212.542562 129.89701 
L 214.33595 129.961802 
L 216.129339 130.026597 
L 217.922727 130.026597 
" clip-path="url(#pfdc579fe89)" style="fill: none; stroke: #1f77b4; stroke-width: 1.21; stroke-linecap: square"/>
   </g>
   <g id="line2d_15">
    <path d="M 40.377273 136.018826 
L 42.170661 137.904687 
L 43.96405 143.604972 
L 45.757438 151.698181 
L 47.550826 95.438869 
L 49.344215 88.353414 
L 51.137603 88.203719 
L 52.930992 73.068618 
L 54.72438 68.217764 
L 56.517769 64.88567 
L 58.311157 66.501664 
L 60.104545 70.050375 
L 61.897934 62.278656 
L 63.691322 57.514882 
L 65.484711 58.314428 
L 67.278099 61.982862 
L 69.071488 65.512828 
L 70.864876 69.146374 
L 72.658264 72.094805 
L 74.451653 75.001901 
L 76.245041 77.726383 
L 78.03843 80.247991 
L 79.831818 82.4102 
L 81.625207 84.506065 
L 83.418595 86.270382 
L 85.211983 88.217452 
L 87.005372 89.825732 
L 88.79876 91.398557 
L 90.592149 92.84635 
L 92.385537 94.300301 
L 94.178926 95.588661 
L 95.972314 96.513823 
L 97.765702 97.847874 
L 99.559091 98.918316 
L 101.352479 99.857125 
L 103.145868 100.911056 
L 104.939256 101.740705 
L 106.732645 102.685598 
L 108.526033 103.361888 
L 110.319421 104.35537 
L 112.11281 105.034054 
L 113.906198 105.713658 
L 115.699587 106.394251 
L 117.492975 106.941533 
L 119.286364 107.758452 
L 121.079752 108.213612 
L 122.87314 108.851298 
L 124.666529 109.352962 
L 126.459917 109.848908 
L 128.253306 110.358497 
L 130.046694 110.99968 
L 131.840083 111.274711 
L 133.633471 111.917 
L 135.42686 112.284351 
L 137.220248 112.697857 
L 139.013636 113.065564 
L 140.807025 113.525663 
L 142.600413 113.940143 
L 144.393802 114.17609 
L 146.18719 114.631469 
L 147.980579 115.046785 
L 149.773967 115.277538 
L 151.567355 115.554691 
L 153.360744 115.878141 
L 155.154132 116.248084 
L 156.947521 116.479279 
L 158.740909 116.895779 
L 160.534298 116.970254 
L 162.327686 117.266214 
L 164.121074 117.636875 
L 165.914463 117.961159 
L 167.707851 118.100324 
L 169.50124 118.239429 
L 171.294628 118.610659 
L 173.088017 118.796416 
L 174.881405 119.028708 
L 176.674793 119.30757 
L 178.468182 119.410588 
L 180.26157 119.726031 
L 182.054959 119.818908 
L 183.848347 120.005016 
L 185.641736 120.237669 
L 187.435124 120.465803 
L 189.228512 120.656683 
L 191.021901 120.749857 
L 192.815289 120.889642 
L 194.608678 121.169269 
L 196.402066 121.402376 
L 198.195455 121.495653 
L 199.988843 121.588944 
L 201.782231 121.822195 
L 203.57562 121.868861 
L 205.369008 122.008877 
L 207.162397 122.288996 
L 208.955785 122.382379 
L 210.749174 122.5225 
L 212.542562 122.709356 
L 214.33595 122.849543 
L 216.129339 122.989757 
L 217.922727 122.989757 
" clip-path="url(#pfdc579fe89)" style="fill: none; stroke: #ff7f0e; stroke-width: 1.21; stroke-linecap: square"/>
   </g>
   <g id="line2d_16">
    <path d="M 40.377273 136.008036 
L 42.170661 136.14876 
L 43.96405 137.235883 
L 45.757438 139.950958 
L 47.550826 112.140047 
L 49.344215 112.222849 
L 51.137603 106.050887 
L 52.930992 111.99971 
L 54.72438 93.984462 
L 56.517769 87.37113 
L 58.311157 84.920058 
L 60.104545 83.938548 
L 61.897934 73.921735 
L 63.691322 63.558482 
L 65.484711 63.205939 
L 67.278099 55.475128 
L 69.071488 48.337684 
L 70.864876 46.546925 
L 72.658264 45.572479 
L 74.451653 45.843791 
L 76.245041 49.355653 
L 78.03843 52.756795 
L 79.831818 55.557456 
L 81.625207 58.504348 
L 83.418595 60.983001 
L 85.211983 63.748414 
L 87.005372 66.052549 
L 88.79876 68.315742 
L 90.592149 70.415058 
L 92.385537 72.53009 
L 94.178926 74.411543 
L 95.972314 75.76842 
L 97.765702 77.730183 
L 99.559091 79.309561 
L 101.352479 80.697527 
L 103.145868 82.260155 
L 104.939256 83.492882 
L 106.732645 84.900239 
L 108.526033 85.909086 
L 110.319421 87.394324 
L 112.11281 88.410552 
L 113.906198 89.428624 
L 115.699587 90.450433 
L 117.492975 91.273299 
L 119.286364 92.503575 
L 121.079752 93.190452 
L 122.87314 94.154171 
L 124.666529 94.913195 
L 126.459917 95.663949 
L 128.253306 96.435532 
L 130.046694 97.407146 
L 131.840083 97.824014 
L 133.633471 98.799221 
L 135.42686 99.357381 
L 137.220248 99.986021 
L 139.013636 100.545878 
L 140.807025 101.246723 
L 142.600413 101.878447 
L 144.393802 102.238052 
L 146.18719 102.932854 
L 147.980579 103.566944 
L 149.773967 103.919442 
L 151.567355 104.342928 
L 153.360744 104.837467 
L 155.154132 105.403375 
L 156.947521 105.757442 
L 158.740909 106.395348 
L 160.534298 106.509484 
L 162.327686 106.963155 
L 164.121074 107.531626 
L 165.914463 108.029576 
L 167.707851 108.24298 
L 169.50124 108.456601 
L 171.294628 109.026782 
L 173.088017 109.311973 
L 174.881405 109.668707 
L 176.674793 110.097206 
L 178.468182 110.255582 
L 180.26157 110.74065 
L 182.054959 110.883722 
L 183.848347 111.170014 
L 185.641736 111.528158 
L 187.435124 111.879387 
L 189.228512 112.173386 
L 191.021901 112.316812 
L 192.815289 112.531922 
L 194.608678 112.962778 
L 196.402066 113.322106 
L 198.195455 113.465877 
L 199.988843 113.60961 
L 201.782231 113.969339 
L 203.57562 114.041272 
L 205.369008 114.257174 
L 207.162397 114.689346 
L 208.955785 114.833404 
L 210.749174 115.049667 
L 212.542562 115.338183 
L 214.33595 115.554527 
L 216.129339 115.771042 
L 217.922727 115.771012 
" clip-path="url(#pfdc579fe89)" style="fill: none; stroke: #2ca02c; stroke-width: 1.21; stroke-linecap: square"/>
   </g>
   <g id="line2d_17">
    <path d="M 40.377273 136.008246 
L 42.170661 136.008725 
L 43.96405 136.030743 
L 45.757438 136.190331 
L 47.550826 135.452454 
L 49.344215 134.901226 
L 51.137603 132.059467 
L 52.930992 131.632936 
L 54.72438 126.794417 
L 56.517769 114.46331 
L 58.311157 108.988733 
L 60.104545 101.028396 
L 61.897934 88.115239 
L 63.691322 82.46923 
L 65.484711 75.366799 
L 67.278099 73.289573 
L 69.071488 71.055989 
L 70.864876 67.398899 
L 72.658264 50.537267 
L 74.451653 46.171756 
L 76.245041 47.363611 
L 78.03843 41.980969 
L 79.831818 44.229825 
L 81.625207 43.691007 
L 83.418595 43.496688 
L 85.211983 42.876583 
L 87.005372 38.463822 
L 88.79876 34.774018 
L 90.592149 33.48 
L 92.385537 35.577201 
L 94.178926 36.066663 
L 95.972314 37.458885 
L 97.765702 39.59043 
L 99.559091 41.843938 
L 101.352479 43.556923 
L 103.145868 45.842784 
L 104.939256 47.625864 
L 106.732645 49.765074 
L 108.526033 51.328366 
L 110.319421 53.639303 
L 112.11281 55.232478 
L 113.906198 56.815709 
L 115.699587 58.430039 
L 117.492975 59.733258 
L 119.286364 61.694288 
L 121.079752 62.792264 
L 122.87314 64.341293 
L 124.666529 65.565378 
L 126.459917 66.779264 
L 128.253306 68.02998 
L 130.046694 69.611568 
L 131.840083 70.291975 
L 133.633471 71.887774 
L 135.42686 72.803917 
L 137.220248 73.838142 
L 139.013636 74.760784 
L 140.807025 75.918026 
L 142.600413 76.963365 
L 144.393802 77.56003 
L 146.18719 78.714628 
L 147.980579 79.770388 
L 149.773967 80.35817 
L 151.567355 81.065014 
L 153.360744 81.89216 
L 155.154132 82.840137 
L 156.947521 83.43296 
L 158.740909 84.504777 
L 160.534298 84.696587 
L 162.327686 85.460286 
L 164.121074 86.418714 
L 165.914463 87.258973 
L 167.707851 87.619576 
L 169.50124 87.980958 
L 171.294628 88.946481 
L 173.088017 89.430239 
L 174.881405 90.035682 
L 176.674793 90.76375 
L 178.468182 91.033103 
L 180.26157 91.858592 
L 182.054959 92.102278 
L 183.848347 92.589999 
L 185.641736 93.200269 
L 187.435124 93.799781 
L 189.228512 94.30145 
L 191.021901 94.546784 
L 192.815289 94.915076 
L 194.608678 95.652703 
L 196.402066 96.268091 
L 198.195455 96.514656 
L 199.988843 96.761146 
L 201.782231 97.378599 
L 203.57562 97.501977 
L 205.369008 97.872738 
L 207.162397 98.615669 
L 208.955785 98.863657 
L 210.749174 99.235354 
L 212.542562 99.732083 
L 214.33595 100.105108 
L 216.129339 100.478331 
L 217.922727 100.478315 
" clip-path="url(#pfdc579fe89)" style="fill: none; stroke: #d62728; stroke-width: 1.21; stroke-linecap: square"/>
   </g>
   <g id="line2d_18">
    <path d="M 40.377273 136.008246 
L 42.170661 136.008246 
L 43.96405 136.008246 
L 45.757438 136.008273 
L 47.550826 136.008222 
L 49.344215 136.001739 
L 51.137603 136.010497 
L 52.930992 136.039219 
L 54.72438 136.104673 
L 56.517769 136.18153 
L 58.311157 136.330065 
L 60.104545 136.620217 
L 61.897934 136.602831 
L 63.691322 137.127178 
L 65.484711 137.762393 
L 67.278099 138.425316 
L 69.071488 139.16354 
L 70.864876 140.147602 
L 72.658264 140.731882 
L 74.451653 141.679071 
L 76.245041 142.62746 
L 78.03843 143.387283 
L 79.831818 143.858252 
L 81.625207 144.644167 
L 83.418595 144.996483 
L 85.211983 146.192757 
L 87.005372 147.066258 
L 88.79876 147.711466 
L 90.592149 149.030271 
L 92.385537 147.538344 
L 94.178926 142.941001 
L 95.972314 141.196414 
L 97.765702 139.705611 
L 99.559091 136.944202 
L 101.352479 131.668845 
L 103.145868 133.323664 
L 104.939256 131.597246 
L 106.732645 131.251146 
L 108.526033 128.184375 
L 110.319421 127.134505 
L 112.11281 128.462217 
L 113.906198 121.920503 
L 115.699587 123.091788 
L 117.492975 124.281291 
L 119.286364 123.965436 
L 121.079752 112.303893 
L 122.87314 105.47945 
L 124.666529 92.380717 
L 126.459917 82.696605 
L 128.253306 77.805643 
L 130.046694 54.715066 
L 131.840083 55.623537 
L 133.633471 57.77809 
L 135.42686 52.546607 
L 137.220248 44.569052 
L 139.013636 42.710642 
L 140.807025 42.784773 
L 142.600413 40.559388 
L 144.393802 36.565476 
L 146.18719 35.875864 
L 147.980579 35.799063 
L 149.773967 36.128595 
L 151.567355 34.905397 
L 153.360744 35.529144 
L 155.154132 36.713532 
L 156.947521 37.71483 
L 158.740909 36.827284 
L 160.534298 36.887771 
L 162.327686 38.207793 
L 164.121074 37.823117 
L 165.914463 38.370561 
L 167.707851 38.660821 
L 169.50124 39.193283 
L 171.294628 40.766671 
L 173.088017 41.640179 
L 174.881405 42.247322 
L 176.674793 43.178717 
L 178.468182 43.304431 
L 180.26157 44.494849 
L 182.054959 44.638409 
L 183.848347 45.336527 
L 185.641736 46.441045 
L 187.435124 47.458291 
L 189.228512 48.3526 
L 191.021901 48.816417 
L 192.815289 49.454438 
L 194.608678 50.815488 
L 196.402066 51.94113 
L 198.195455 52.413975 
L 199.988843 52.873879 
L 201.782231 54.063541 
L 203.57562 54.302289 
L 205.369008 55.020159 
L 207.162397 56.463188 
L 208.955785 56.938096 
L 210.749174 57.664862 
L 212.542562 58.637618 
L 214.33595 59.344738 
L 216.129339 60.071226 
L 217.922727 60.071226 
" clip-path="url(#pfdc579fe89)" style="fill: none; stroke: #9467bd; stroke-width: 1.21; stroke-linecap: square"/>
   </g>
   <g id="patch_3">
    <path d="M 31.5 192.24 
L 31.5 25.92 
" style="fill: none; stroke: #000000; stroke-width: 0.8; stroke-linejoin: miter; stroke-linecap: square"/>
   </g>
   <g id="patch_4">
    <path d="M 226.8 192.24 
L 226.8 25.92 
" style="fill: none; stroke: #000000; stroke-width: 0.8; stroke-linejoin: miter; stroke-linecap: square"/>
   </g>
   <g id="patch_5">
    <path d="M 31.5 192.24 
L 226.8 192.24 
" style="fill: none; stroke: #000000; stroke-width: 0.8; stroke-linejoin: miter; stroke-linecap: square"/>
   </g>
   <g id="patch_6">
    <path d="M 31.5 25.92 
L 226.8 25.92 
" style="fill: none; stroke: #000000; stroke-width: 0.8; stroke-linejoin: miter; stroke-linecap: square"/>
   </g>
  </g>
 </g>
 <defs>
  <clipPath id="pfdc579fe89">
   <rect x="31.5" y="25.92" width="195.3" height="166.32"/>
  </clipPath>
 </defs>
</svg>
